<?xml version="1.0" encoding="utf-8"?>
<!-- Generator: Adobe Illustrator 24.3.0, SVG Export Plug-In . SVG Version: 6.00 Build 0)  -->
<svg version="1.1" id="Layer_1" xmlns="http://www.w3.org/2000/svg" xmlns:xlink="http://www.w3.org/1999/xlink" x="0px" y="0px"
	 viewBox="0 0 240.391 226.414" enable-background="new 0 0 240.391 226.414" xml:space="preserve">
<defs>
	<script  language="JavaScript"></script>
</defs>
<script  type="text/JavaScript">
	<![CDATA[
function notify( ref, type ) {
    var event = document.createEvent("CustomEvent");
    event.initEvent(type,true,true);
    ref.dispatchEvent(event);
}

		
		
		
		
		
		
		
		
		
		
		
		]]>
</script>
<g>
	<g>
		<g>
			<path fill="#EA8E10" d="M168.026,16.669c-13.312-2.005-30.541-3.215-49.379-3.215c-17.388,0-33.399,1.03-46.229,2.765V40.46
				H36.65v93.13H203.79V40.91h-35.765V16.669L168.026,16.669z"/>
		</g>
		<path fill="#231F20" d="M168.026,47.872V16.768c18.291,3.174,30.136,8.172,30.136,13.814c3.104,0,5.629,2.596,5.629,5.802v11.488
			H168.026z"/>
		<path fill="#231F20" d="M72.415,47.374V16.269C54.124,19.444,42.28,24.442,42.28,30.084c-3.105,0-5.632,2.594-5.632,5.801v11.488
			L72.415,47.374L72.415,47.374z"/>
	</g>
	<path fill="#F5A909" d="M213.098,132.777c-4.225-4.224-12.777-4.512-19.145-8.106c-25.554-14.445-43.263-19.029-73.162-19.029
		c-0.188,0-0.381,0.002-0.568,0.004c-0.188-0.001-0.385-0.004-0.569-0.004c-29.899,0-47.606,4.584-73.161,19.029
		c-6.367,3.597-14.923,3.886-19.146,8.106c-12.045,12.046-4.393,37.98-4.393,37.98c0,0.695,0.555,1.248,1.241,1.248h96.024h96.027
		c0.688,0,1.244-0.553,1.244-1.248C217.49,170.756,225.145,144.823,213.098,132.777z"/>
	<path fill="#F5A909" d="M143.329,14.193c0-2.861-9.302-9.327-23.238-9.327c-13.922,0-22.979,6.466-22.979,9.327"/>
	<path fill="#231F20" d="M216.016,172.004h-18.505h-39.844h-75.73H42.691H24.429c-0.729,0-1.311,0.83-1.311,1.861l3.521,8.496
		c0,1.078,0.562,1.967,1.252,1.967h13.404v26.131c0,0.854,0.625,1.549,1.395,1.549h39.246c0.768,0,1.393-0.694,1.393-1.549v-16.332
		h72.936v16.332c0,0.854,0.619,1.549,1.404,1.549h39.844c0.779,0,1.398-0.694,1.398-1.549v-26.131h13.629
		c0.699,0,1.266-0.889,1.266-1.967l3.518-8.496C217.321,172.835,216.729,172.004,216.016,172.004z"/>
	<path fill="#12100B" stroke="#4D4947" stroke-width="6" d="M162.682,155.443c0,3.901-3.162,7.063-7.063,7.063H84.823
		c-3.902,0-7.064-3.162-7.064-7.063v-26.56c0-3.907,3.162-7.069,7.064-7.069h70.795c3.901,0,7.063,3.162,7.063,7.069V155.443
		L162.682,155.443z"/>
	<path fill="#D0D0D0" stroke="#231F20" stroke-width="4" d="M213.374,147.778c0,8.426-6.817,15.258-15.256,15.258
		c-8.41,0-15.248-6.83-15.248-15.258c0-8.424,6.838-15.255,15.248-15.255C206.557,132.524,213.374,139.354,213.374,147.778z"/>
	<path fill="#FFFFFF" stroke="#231F20" stroke-width="2" d="M207.565,147.778c0,5.217-4.222,9.443-9.442,9.443
		c-5.207,0-9.439-4.229-9.439-9.443c0-5.214,4.232-9.441,9.439-9.441C203.343,138.336,207.565,142.564,207.565,147.778z"/>
	<path fill="#D0D0D0" stroke="#231F20" stroke-width="4" d="M57.571,147.778c0,8.426-6.817,15.258-15.259,15.258
		c-8.409,0-15.248-6.83-15.248-15.258c0-8.424,6.839-15.255,15.248-15.255C50.751,132.524,57.571,139.354,57.571,147.778z"/>
	<path fill="#FFFFFF" stroke="#231F20" stroke-width="2" d="M51.757,147.778c0,5.217-4.221,9.443-9.443,9.443
		c-5.207,0-9.438-4.229-9.438-9.443c0-5.214,4.23-9.441,9.438-9.441C47.538,138.336,51.757,142.564,51.757,147.778z"/>
	<line fill="none" stroke="#4D4947" stroke-width="5" x1="79.828" y1="138.493" x2="160.614" y2="138.493"/>
	<line fill="none" stroke="#4D4947" stroke-width="5" x1="79.828" y1="130.113" x2="160.614" y2="130.113"/>
	<line fill="none" stroke="#4D4947" stroke-width="5" x1="79.828" y1="146.874" x2="160.614" y2="146.874"/>
	<line fill="none" stroke="#4D4947" stroke-width="5" x1="79.828" y1="155.254" x2="160.614" y2="155.254"/>
	<g>
		<g>
			<defs>
				<path id="SVGID_1_" d="M198.12,91.793c0,0.688-0.556,1.249-1.242,1.249h-70.701c-0.692,0-1.264-0.562-1.264-1.249V57.367
					c0-0.688,0.567-1.25,1.264-1.25h70.701c0.688,0,1.242,0.562,1.242,1.25V91.793z"/>
			</defs>
			<use xlink:href="#SVGID_1_"  overflow="visible" fill="#FFFFFF"/>
			<clipPath id="SVGID_2_">
				<use xlink:href="#SVGID_1_"  overflow="visible"/>
			</clipPath>
			<g clip-path="url(#SVGID_2_)">
				<path d="M124.896,94.691c-0.081,0-0.162,0-0.26,0c0.068-0.058,0.127-0.103,0.178-0.154c0.756-0.753,1.508-1.51,2.27-2.257
					c0.242-0.237,0.511-0.445,0.767-0.669c0.047-0.041,0.117-0.086,0.124-0.137c0.065-0.489,0.512-0.654,0.798-0.954
					c0.056-0.059,0.116-0.113,0.175-0.169c0.672-0.636,1.33-1.288,2.021-1.903c0.821-0.73,1.67-1.426,2.507-2.138
					c0.11-0.093,0.217-0.189,0.365-0.319c-0.64-0.138-0.905-0.594-1.117-1.071c-0.082-0.184-0.068-0.435-0.029-0.643
					c0.078-0.418-0.143-0.715-0.364-1.003c-0.332-0.433-0.717-0.825-0.886-1.367c-0.051-0.162-0.207-0.287-0.296-0.44
					c-0.202-0.346-0.285-0.725-0.292-1.126c-0.011-0.637-0.015-1.274-0.057-1.909c-0.054-0.813,0.095-1.577,0.458-2.303
					c0.273-0.544,0.513-1.109,0.827-1.628c0.401-0.662,1.024-1.118,1.636-1.576c0.071-0.053,0.134-0.116,0.205-0.168
					c0.331-0.244,0.667-0.481,0.994-0.731c0.056-0.043,0.111-0.137,0.105-0.201c-0.027-0.279-0.078-0.557-0.12-0.835
					c-0.013-0.087-0.025-0.174-0.037-0.261c-0.024-0.189-0.069-0.364-0.277-0.436c-0.024-0.009-0.06-0.012-0.07-0.03
					c-0.223-0.375-0.585-0.273-0.914-0.26c-0.396,0.015-0.674-0.119-0.958-0.432c-0.457-0.504-0.782-1.087-1.164-1.634
					c-0.48-0.686-0.958-1.377-1.387-2.095c-0.523-0.874-0.997-1.778-1.489-2.672c-0.191-0.348-0.374-0.7-0.558-1.052
					c-0.172-0.329-0.34-0.66-0.509-0.99c-0.015-0.03-0.038-0.062-0.039-0.093c-0.007-0.486-0.018-0.988,0.24-1.412
					c0.195-0.319,0.541-0.5,0.901-0.615c0.511-0.164,1.045-0.244,1.561-0.098c0.361,0.102,0.686,0.333,1.031,0.498
					c0.225,0.108,0.465,0.189,0.685,0.305c0.207,0.11,0.398,0.248,0.594,0.379c0.986,0.659,1.977,1.311,2.954,1.983
					c0.515,0.354,1.005,0.743,1.504,1.12c0.827,0.625,1.658,1.247,2.477,1.883c0.443,0.344,0.861,0.721,1.298,1.074
					c0.287,0.231,0.587,0.446,0.881,0.668c0.371,0.281,0.74,0.565,1.114,0.841c0.669,0.495,1.342,0.986,2.012,1.48
					c0.058,0.042,0.106,0.097,0.195,0.18c0.355-0.44,0.708-0.877,1.069-1.325c-0.535-0.25-1.043-0.442-1.504-0.714
					c-0.667-0.393-1.297-0.849-1.95-1.268c-0.233-0.149-0.484-0.272-0.729-0.401c-0.306-0.162-0.618-0.313-0.922-0.479
					c-0.159-0.087-0.116-0.195,0.01-0.278c0.499-0.327,1.048-0.483,1.643-0.554c0.799-0.096,1.588-0.271,2.384-0.398
					c0.533-0.085,0.948-0.376,1.376-0.707c-1.187-1.879-2.609-3.584-3.625-5.638c0.183,0,0.344-0.024,0.497,0.005
					c0.382,0.071,0.756,0.206,1.14,0.241c0.728,0.066,1.462,0.117,2.193,0.107c0.772-0.01,1.542-0.095,2.312-0.16
					c0.058-0.005,0.14-0.099,0.158-0.165c0.24-0.926,0.34-1.871,0.269-2.824c-0.035-0.479-0.14-0.954-0.229-1.428
					c-0.072-0.385-0.159-0.767-0.254-1.147c-0.054-0.216-0.148-0.422-0.206-0.637c-0.059-0.218-0.104-0.441-0.139-0.664
					c-0.071-0.452-0.13-0.906-0.194-1.359c0.108,0,0.217,0,0.325,0c0.481,0.397,0.962,0.794,1.444,1.19
					c0.382,0.314,0.77,0.62,1.145,0.942c0.682,0.585,1.373,1.162,2.027,1.777c0.368,0.345,0.67,0.76,1.002,1.144
					c0.244,0.282,0.489,0.563,0.743,0.855c0.977-0.982,1.94-1.96,2.752-3.087c0.496-0.689,0.848-1.442,1.239-2.182
					c0.045-0.086,0.154-0.138,0.234-0.205c0.059,0.077,0.133,0.146,0.173,0.231c0.126,0.273,0.27,0.544,0.349,0.832
					c0.163,0.595,0.352,1.193,0.413,1.802c0.062,0.619,0.009,1.255-0.044,1.88c-0.057,0.666-0.173,1.327-0.262,1.99
					c-0.016,0.122-0.037,0.246-0.027,0.367c0.003,0.034,0.115,0.092,0.169,0.083c0.483-0.077,0.962-0.178,1.446-0.25
					c0.873-0.13,1.758-0.199,2.587-0.542c0.142-0.059,0.29-0.109,0.441-0.142c0.081-0.018,0.172,0.009,0.32,0.02
					c-0.294,0.405-0.576,0.732-0.787,1.101c-0.26,0.455-0.462,0.943-0.687,1.417c-0.18,0.381-0.357,0.764-0.536,1.145
					c-0.198,0.422-0.398,0.844-0.596,1.267c-0.018,0.039-0.012,0.095-0.038,0.122c-0.188,0.195-0.083,0.299,0.1,0.417
					c0.47,0.302,0.918,0.64,1.397,0.927c0.467,0.28,1.002,0.359,1.537,0.377c0.169,0.006,0.243,0.102,0.29,0.206
					c0.019,0.041-0.097,0.159-0.168,0.224c-0.172,0.155-0.345,0.31-0.533,0.443c-0.328,0.231-0.665,0.449-1.003,0.667
					c-0.391,0.252-0.628,0.637-0.878,1.009c-0.14,0.208-0.272,0.423-0.39,0.644c-0.033,0.063-0.038,0.187,0.002,0.236
					c0.374,0.463,0.731,0.946,1.154,1.36c0.301,0.296,0.696,0.495,1.049,0.739c0.086,0.06,0.168,0.125,0.242,0.181
					c-0.054,0.352-0.364,0.262-0.556,0.363c-0.498,0.262-1,0.514-1.494,0.782c-0.222,0.12-0.428,0.269-0.641,0.406
					c-0.042,0.027-0.095,0.054-0.117,0.095c-0.053,0.101,0.084,0.742,0.173,0.824c0.44,0.405,0.886,0.804,1.318,1.217
					c0.062,0.059,0.061,0.183,0.09,0.279c-0.568,0.036-1.098,0.07-1.642,0.105c0.166,0.42,0.316,0.796,0.486,1.225
					c-0.356,0.039-0.661,0.059-0.962,0.111c-0.13,0.022-0.253,0.099-0.371,0.166c-0.177,0.101-0.347,0.215-0.548,0.341
					c-0.031,0.104-0.06,0.27-0.13,0.417c-0.09,0.189-0.044,0.321,0.118,0.424c0.78,0.494,1.38,1.176,1.952,1.883
					c0.308,0.38,0.622,0.769,0.846,1.2c0.209,0.401,0.329,0.855,0.442,1.297c0.179,0.7,0.012,1.398-0.177,2.059
					c-0.142,0.496-0.463,0.94-0.703,1.408c-0.091,0.177-0.183,0.354-0.263,0.536c-0.03,0.069-0.054,0.158-0.038,0.229
					c0.132,0.568,0.272,1.134,0.414,1.699c0.211,0.842,0.45,1.678,0.632,2.527c0.236,1.102,0.626,2.151,1.037,3.194
					c0.378,0.961,0.774,1.915,1.162,2.872c0.039,0.096,0.074,0.193,0.114,0.297c-0.214,0.088-0.343-0.023-0.407-0.189
					c-0.273-0.707-0.525-1.421-0.799-2.128c-0.174-0.45-0.39-0.884-0.553-1.337c-0.161-0.448-0.289-0.91-0.411-1.37
					c-0.232-0.875-0.459-1.751-0.672-2.63c-0.203-0.839-0.385-1.683-0.578-2.524c-0.018-0.078-0.049-0.154-0.088-0.276
					c-0.35,0.624-0.661,1.223-1.015,1.795c-0.239,0.386-0.543,0.732-0.811,1.101c-0.048,0.065-0.084,0.156-0.085,0.235
					c-0.023,1.232-0.034,2.464-0.06,3.696c-0.012,0.545-0.051,1.089-0.079,1.671c-0.052-0.034-0.128-0.06-0.128-0.087
					c-0.008-0.749-0.012-1.498-0.007-2.247c0.001-0.158,0.047-0.315,0.052-0.474c0.023-0.718,0.04-1.435,0.054-2.153
					c0.001-0.045-0.033-0.092-0.064-0.172c-0.147,0.19-0.282,0.349-0.401,0.52c-0.28,0.402-0.544,0.816-0.831,1.212
					c-0.205,0.284-0.123,0.564-0.059,0.862c0.172,0.803,0.317,1.612,0.495,2.413c0.143,0.646,0.318,1.285,0.477,1.927
					c0.012,0.049,0.002,0.104,0.002,0.158c-0.183,0.065-0.281,0.017-0.322-0.178c-0.138-0.654-0.291-1.305-0.429-1.959
					c-0.097-0.462-0.184-0.925-0.261-1.391c-0.068-0.416-0.116-0.836-0.185-1.346c-0.186,0.212-0.334,0.364-0.462,0.531
					c-0.498,0.652-0.991,1.308-1.484,1.964c-0.49,0.651-0.985,1.298-1.456,1.963c-0.058,0.081,0.022,0.26,0.04,0.414
					c-0.158,0-0.382,0-0.57,0c0.564-0.795,1.149-1.624,1.738-2.45c0.825-1.154,1.654-2.305,2.48-3.458
					c0.907-1.267,1.82-2.53,2.715-3.806c0.198-0.283,0.333-0.611,0.496-0.918c0.327-0.615,0.677-1.22,0.969-1.851
					c0.143-0.309,0.186-0.667,0.255-1.006c0.052-0.257,0.095-0.519,0.108-0.78c0.03-0.6-0.14-1.175-0.398-1.695
					c-0.207-0.417-0.569-0.755-0.835-1.147c-0.454-0.67-1.057-1.195-1.643-1.736c-0.138-0.128-0.315-0.213-0.48-0.323
					c-0.345,0.92-0.81,1.723-1.649,2.235c-0.375,0.229-0.78,0.409-1.174,0.604c-0.176,0.087-0.34,0.115-0.279,0.417
					c0.094,0.467,0.077,0.955,0.127,1.432c0.056,0.534,0.138,1.065,0.204,1.598c0.06,0.481,0.109,0.964,0.174,1.444
					c0.053,0.39,0.123,0.779,0.182,1.168c0.017,0.114,0.016,0.23,0.035,0.344c0.02,0.124,0.054,0.245,0.094,0.419
					c0.317-0.459,0.585-0.869,0.878-1.259c0.139-0.185,0.118-0.313-0.052-0.441c-0.186-0.141-0.223-0.247-0.078-0.493
					c0.37-0.63,0.673-1.3,0.992-1.96c0.038-0.079,0.042-0.212,0-0.285c-0.42-0.731-0.854-1.455-1.282-2.182
					c-0.032-0.054-0.053-0.114-0.079-0.171c0.029-0.02,0.059-0.04,0.088-0.06c0.155,0.205,0.329,0.398,0.462,0.616
					c0.358,0.588,0.717,1.177,1.029,1.789c0.069,0.136-0.008,0.39-0.091,0.552c-0.33,0.646-0.689,1.277-1.041,1.921
					c0.104,0.099,0.201,0.191,0.316,0.3c0.256-0.362,0.513-0.725,0.776-1.095c0.07,0.059,0.122,0.103,0.177,0.149
					c-0.867,1.283-1.705,2.551-2.571,3.798c-0.834,1.2-1.704,2.375-2.545,3.571c-0.355,0.505-0.665,1.042-1.017,1.55
					c-0.42,0.605-0.869,1.189-1.296,1.79c-0.267,0.375-0.504,0.771-0.778,1.14c-0.108,0.146-0.203,0.373-0.496,0.285
					c0.024-0.06,0.035-0.121,0.068-0.163c0.297-0.375,0.608-0.739,0.894-1.123c0.114-0.152,0.141-0.327-0.014-0.509
					c-0.081-0.095-0.079-0.259-0.123-0.388c-0.122-0.361-0.258-0.717-0.372-1.081c-0.171-0.546-0.35-1.09-0.488-1.645
					c-0.252-1.015-0.502-2.032-0.703-3.057c-0.197-1.007-0.345-2.025-0.491-3.042c-0.127-0.89-0.22-1.786-0.33-2.679
					c-0.07-0.569-0.122-1.141-0.229-1.703c-0.037-0.198-0.193-0.387-0.33-0.549c-0.325-0.385-0.67-0.753-1.011-1.124
					c-0.646-0.704-1.296-1.406-1.944-2.108c-0.03-0.032-0.064-0.061-0.128-0.12c-0.038,0.071-0.089,0.124-0.092,0.18
					c-0.03,0.473,0.009,0.926,0.258,1.355c0.15,0.258,0.188,0.582,0.347,0.831c0.25,0.392,0.289,0.838,0.396,1.262
					c0.137,0.541,0.177,1.105,0.306,1.648c0.056,0.236,0.217,0.453,0.352,0.664c0.293,0.459,0.267,0.959,0.198,1.459
					c-0.027,0.193-0.12,0.378-0.189,0.564c-0.128,0.342-0.403,0.518-0.735,0.63c0.031,0.371,0.075,0.738,0.09,1.107
					c0.028,0.699,0.057,1.399,0.051,2.099c-0.005,0.506-0.063,1.011-0.104,1.516c-0.014,0.167,0.054,0.225,0.214,0.262
					c0.309,0.071,0.663,0.105,0.805,0.456c0.283,0.703,0.122,1.463-0.486,1.914c-0.492,0.365-1.037,0.658-1.581,0.996
					c0.231,0.74,0.479,1.538,0.737,2.364c-0.07,0-0.119,0-0.169,0c-0.019-0.048-0.026-0.109-0.059-0.143
					c-0.282-0.286-0.335-0.667-0.429-1.028c-0.059-0.225-0.178-0.295-0.384-0.177c-0.083,0.047-0.151,0.129-0.239,0.157
					c-0.313,0.1-0.628,0.2-0.949,0.268c-0.248,0.052-0.506,0.055-0.74,0.078c0.065,0.291,0.127,0.568,0.189,0.845
					c-0.066-0.057-0.171-0.103-0.193-0.174c-0.143-0.463-0.272-0.931-0.399-1.4c-0.103-0.382-0.098-0.383-0.623-0.364
					c-0.045,0.391-0.08,0.785-0.139,1.175c-0.033,0.222-0.094,0.442-0.168,0.654c-0.018,0.053-0.134,0.072-0.205,0.107
					c0.107-0.494,0.224-0.987,0.318-1.484c0.077-0.407,0.005-0.467-0.409-0.518c-0.357-0.044-0.65-0.163-0.8-0.565
					c-0.23-0.614-0.235-1.225-0.128-1.853c0.008-0.045,0.016-0.099-0.001-0.138c-0.122-0.29-0.222-0.594-0.384-0.859
					c-0.15-0.246-0.273-0.559-0.635-0.586c-0.293-0.023-0.589-0.026-0.881-0.058c-0.473-0.053-0.951-0.093-1.416-0.19
					c-1.056-0.221-1.926-0.772-2.621-1.59c-0.217-0.256-0.395-0.544-0.633-0.875c-0.257-0.067-0.585-0.045-0.869,0.197
					c-0.183,0.156-0.359,0.321-0.538,0.482c-0.703,0.631-1.409,1.259-2.109,1.894c-0.649,0.588-1.29,1.184-1.938,1.772
					c-0.237,0.214-0.481,0.421-0.729,0.621c-0.336,0.271-0.353,0.36-0.118,0.741c0.032,0.052,0.047,0.113,0.075,0.167
					c0.34,0.634,0.754,1.188,1.47,1.446c0.341,0.123,0.671,0.278,1.012,0.421c1.267-1.296,2.525-2.583,3.783-3.87
					c0.036,0.034,0.073,0.067,0.109,0.101c-0.263,0.276-0.526,0.553-0.758,0.797c0.013,0.095,0.047,0.17,0.026,0.227
					c-0.298,0.829-0.582,1.664-0.915,2.478c-0.177,0.433-0.445,0.829-0.671,1.242c-0.062,0-0.125,0-0.201,0
					c0.189-0.329,0.371-0.65,0.556-0.969c0.297-0.512,0.487-1.063,0.629-1.636c0.049-0.195,0.182-0.368,0.259-0.559
					c0.026-0.064-0.004-0.15-0.008-0.226c-0.099,0.017-0.236-0.002-0.291,0.056c-0.437,0.469-0.848,0.963-1.289,1.428
					c-0.332,0.35-0.69,0.678-1.054,0.995c-0.077,0.067-0.234,0.071-0.348,0.057c-0.125-0.015-0.243-0.084-0.349-0.124
					c-0.359,0.329-0.7,0.647-1.05,0.955c-0.043,0.037-0.136,0.017-0.206,0.023c0.221-0.198,0.446-0.393,0.664-0.595
					c0.264-0.245,0.277-0.557-0.054-0.691c-0.383-0.156-0.701-0.389-0.951-0.705c-0.212-0.267-0.407-0.552-0.571-0.85
					c-0.121-0.22-0.227-0.207-0.38-0.063c-0.046,0.043-0.089,0.089-0.134,0.134c-0.606,0.606-1.207,1.217-1.82,1.816
					C125.601,94.065,125.244,94.373,124.896,94.691z M160.459,63.866c0.025,0.017,0.049,0.034,0.074,0.051
					c-0.012-0.032-0.024-0.064-0.036-0.095c-0.064-0.396-0.115-0.795-0.197-1.188c-0.083-0.4-0.177-0.8-0.303-1.189
					c-0.085-0.263-0.174-0.571-0.366-0.742c-0.288-0.256-0.647-0.48-1.014-0.589c-0.678-0.202-1.377-0.368-2.078-0.445
					c-1.225-0.136-2.393,0.127-3.386,0.871c-0.962,0.721-1.867,1.52-2.791,2.291c-0.175,0.146-0.347,0.255-0.566,0.118
					c-0.219-0.137-0.304-0.422-0.209-0.649c0.507-1.211,1.327-2.147,2.473-2.792c0.432-0.243,0.861-0.494,1.303-0.716
					c0.267-0.134,0.557-0.225,0.839-0.327c0.357-0.129,0.717-0.249,1.076-0.373c-0.007-0.028-0.014-0.056-0.022-0.084
					c-0.401,0.026-0.802,0.05-1.203,0.079c-0.623,0.046-1.2,0.255-1.728,0.568c-0.489,0.291-0.962,0.616-1.405,0.974
					c-0.42,0.339-0.838,0.701-1.166,1.123c-0.24,0.309-0.337,0.73-0.489,1.105c-0.299,0.738-0.529,1.49-0.477,2.302
					c0.027,0.428,0.043,0.858,0.055,1.287c0.022,0.781,0.03,1.562,0.057,2.343c0.026,0.714,0.047,1.43,0.113,2.141
					c0.062,0.666,0.132,1.339,0.284,1.988c0.249,1.061,0.568,2.106,0.866,3.189c0.193-0.302,0.361-0.566,0.557-0.875
					c0.039,0.107,0.077,0.158,0.064,0.182c-0.079,0.146-0.168,0.287-0.256,0.428c-0.376,0.6-0.683,1.221-0.489,1.958
					c0.06,0.228,0.026,0.493,0.328,0.632c0.404,0.186,0.81,0.23,1.195,0.047c0.406-0.194,0.772-0.472,1.159-0.706
					c0.047-0.029,0.12-0.015,0.182-0.021c-0.027,0.046-0.044,0.105-0.082,0.136c-0.258,0.205-0.521,0.403-0.788,0.608
					c0.746,0.544,1.499,0.993,2.415,1.052c0.064-0.838,0.129-1.673,0.191-2.485c-0.171,0.096-0.32,0.215-0.489,0.267
					c-0.247,0.076-0.362-0.062-0.338-0.283c-0.162-0.045-0.301-0.084-0.408-0.114c-0.248,0.151-0.479,0.308-0.724,0.438
					c-0.39,0.207-0.778,0.424-1.188,0.585c-0.359,0.141-0.73-0.073-0.791-0.444c-0.038-0.23-0.008-0.481,0.042-0.712
					c0.156-0.722,0.658-1.182,1.275-1.504c0.461-0.241,0.96-0.414,1.451-0.595c0.72-0.266,1.409-0.584,2.073-0.974
					c0.654-0.384,1.383-0.612,2.127-0.772c0.284-0.061,0.588-0.141,0.864-0.096c0.47,0.075,0.955,0.18,1.379,0.386
					c0.576,0.28,0.979,0.64,0.732,1.324c-0.056,0.155-0.248,0.356-0.391,0.368c-0.435,0.035-0.876-0.021-1.314-0.026
					c-0.367-0.005-0.738-0.017-1.101,0.028c-0.29,0.036-0.569,0.156-0.854,0.234c-0.216,0.059-0.387,0.12-0.346,0.418
					c0.029,0.215-0.007,0.446-0.053,0.661c-0.037,0.169-0.118,0.452-0.208,0.464c-0.244,0.031-0.538,0.148-0.756-0.11
					c-0.24,0.25-0.321,0.559-0.326,0.89c-0.007,0.496,0.007,0.993-0.008,1.489c-0.004,0.119-0.088,0.236-0.136,0.354
					c-0.023,0.057-0.08,0.128-0.063,0.168c0.021,0.049,0.101,0.099,0.158,0.102c0.084,0.005,0.17-0.04,0.257-0.046
					c0.975-0.075,1.897-0.305,2.753-0.804c0.56-0.326,0.989-0.784,1.419-1.245c0.108-0.115,0.164-0.285,0.223-0.438
					c0.163-0.421,0.315-0.846,0.489-1.318c-0.33-0.172-0.739,0.083-1.146-0.142c0.135-0.032,0.198-0.051,0.263-0.061
					c0.383-0.056,0.767-0.103,1.149-0.165c0.249-0.041,0.432-0.18,0.544-0.414c0.217-0.454,0.274-0.923,0.093-1.396
					c-0.055-0.143-0.176-0.289-0.306-0.369c-0.212-0.131-0.455-0.213-0.687-0.309c-0.184-0.076-0.373-0.143-0.559-0.214
					c0.011-0.036,0.022-0.072,0.033-0.108c0.324,0.094,0.648,0.189,0.99,0.288c0.04-1.511,0.08-2.973,0.12-4.469
					c-0.211,0.181-0.386,0.323-0.553,0.474c-0.881,0.798-2.323,0.897-3.301,0.236c-1.004-0.679-1.459-1.615-1.236-2.818
					c0.17-0.918,0.73-1.552,1.574-1.953c0.558-0.264,1.135-0.338,1.727-0.204C159.605,63.245,160.1,63.438,160.459,63.866z
					 M159.225,50.425c-0.09,0.074-0.182,0.118-0.221,0.19c-0.112,0.205-0.195,0.426-0.301,0.634
					c-0.472,0.922-1.067,1.758-1.772,2.516c-0.479,0.515-0.957,1.031-1.437,1.544c-0.111,0.119-0.225,0.235-0.346,0.343
					c-0.125,0.111-0.252,0.157-0.382-0.012c-0.119-0.155-0.251-0.301-0.386-0.442c-0.555-0.577-1.111-1.152-1.67-1.724
					c-0.328-0.336-0.651-0.677-0.998-0.994c-0.555-0.506-1.203-0.895-1.732-1.443c-0.41-0.425-0.921-0.752-1.417-1.145
					c-0.01,0.083-0.028,0.131-0.018,0.173c0.061,0.281,0.138,0.56,0.189,0.842c0.222,1.217,0.447,2.434,0.651,3.655
					c0.116,0.691,0.064,1.383-0.026,2.078c-0.051,0.394-0.32,0.78-0.055,1.243c-1.082,0.069-2.136,0.136-3.191,0.202
					c-1.052,0.066-2.075-0.197-3.152-0.335c0.154,0.264,0.267,0.471,0.393,0.669c0.451,0.708,0.894,1.423,1.366,2.117
					c0.586,0.863,1.2,1.708,1.793,2.567c0.033,0.048,0.018,0.192-0.021,0.215c-0.388,0.233-0.769,0.489-1.183,0.664
					c-0.872,0.37-1.825,0.348-2.743,0.489c-0.539,0.083-1.084,0.129-1.523,0.55c0.281,0.123,0.569,0.245,0.852,0.376
					c0.245,0.113,0.503,0.21,0.722,0.362c0.397,0.276,0.744,0.631,1.159,0.874c0.707,0.414,1.446,0.774,2.181,1.14
					c0.158,0.078,0.214,0.226,0.154,0.31c-0.306,0.43-0.597,0.889-0.982,1.242c-0.527,0.484-1.134,0.881-1.776,1.369
					c0.152,0.107,0.263,0.233,0.399,0.269c0.304,0.081,0.626,0.095,0.93,0.177c0.724,0.194,1.444,0.406,2.159,0.629
					c0.09,0.028,0.215,0.182,0.203,0.259c-0.058,0.379-0.127,0.762-0.251,1.123c-0.119,0.347-0.311,0.668-0.471,0.999
					c0.957,0.035,1.922,0.071,2.891,0.106c0.042,0.352,0.112,0.667,0.109,0.982c-0.003,0.321-0.078,0.641-0.122,0.963
					c0.51,0.092,0.904-0.316,0.792-0.861c-0.048-0.233-0.118-0.461-0.173-0.692c-0.06-0.255-0.107-0.513-0.177-0.765
					c-0.012-0.045-0.107-0.074-0.168-0.096c-0.227-0.083-0.467-0.139-0.683-0.245c-0.475-0.235-0.822-0.628-0.946-1.127
					c-0.097-0.392-0.106-0.837-0.028-1.233c0.088-0.447,0.406-0.788,0.816-1.03c0.101-0.06,0.2-0.222,0.198-0.336
					c-0.006-0.352-0.08-0.703-0.093-1.056c-0.03-0.781-0.037-1.562-0.059-2.343c-0.012-0.438-0.033-0.876-0.053-1.314
					c-0.049-1.062,0-2.109,0.379-3.121c0.221-0.591,0.397-1.195,0.87-1.66c0.623-0.613,1.335-1.103,2.052-1.596
					c0.851-0.586,1.782-0.848,2.799-0.858c0.515-0.005,1.029,0,1.544-0.001c0.738-0.001,1.439,0.115,2.137,0.403
					c0.725,0.299,1.254,0.779,1.684,1.395c0.278,0.398,0.153,0.898-0.245,1.101c0.452,0.746,0.583,1.582,0.708,2.426
					c0.053,0.356,0.007,0.759,0.269,1.05c0.146,0.162,0.224,0.332,0.273,0.53c0.069,0.279,0.174,0.554,0.201,0.836
					c0.045,0.472-0.046,0.929-0.258,1.362c-0.05,0.102-0.041,0.237-0.042,0.357c-0.004,0.391,0.042,0.787-0.009,1.171
					c-0.056,0.423-0.004,0.589,0.342,0.813c0.178,0.116,0.319,0.296,0.459,0.463c0.094,0.112,0.155,0.251,0.238,0.39
					c0.706-0.589,1.481-1.034,2.354-1.303c0.065-0.02,0.117-0.081,0.175-0.123c-0.041-0.05-0.072-0.117-0.124-0.146
					c-0.912-0.509-1.588-1.26-2.166-2.11c-0.05-0.073-0.083-0.21-0.048-0.281c0.485-0.983,1.19-1.775,2.109-2.377
					c0.252-0.165,0.493-0.35,0.813-0.578c-0.204-0.058-0.324-0.095-0.445-0.125c-0.337-0.085-0.713-0.1-1.005-0.265
					c-0.623-0.353-1.198-0.789-1.803-1.176c-0.149-0.095-0.148-0.184-0.09-0.319c0.254-0.583,0.502-1.169,0.758-1.752
					c0.415-0.945,0.823-1.894,1.476-2.71c0.095-0.119,0.157-0.265,0.242-0.412c-0.443,0.106-0.827,0.212-1.215,0.287
					c-0.457,0.089-0.919,0.148-1.378,0.227c-0.614,0.105-1.227,0.211-1.838,0.329c-0.213,0.041-0.293-0.017-0.268-0.22
					c0.043-0.342,0.073-0.686,0.109-1.029c0.055-0.528,0.073-1.064,0.175-1.583c0.18-0.917,0.147-1.816-0.124-2.703
					C159.594,51.348,159.407,50.915,159.225,50.425z M144.748,69.444c-0.112-0.06-0.188-0.088-0.249-0.136
					c-0.759-0.599-1.51-1.207-2.275-1.799c-0.582-0.451-1.18-0.883-1.771-1.322c-0.866-0.643-1.732-1.287-2.6-1.927
					c-0.853-0.629-1.711-1.252-2.564-1.882c-0.932-0.688-1.845-1.401-2.795-2.062c-0.47-0.327-1.014-0.546-1.507-0.843
					c-0.33-0.198-0.657-0.373-1.041-0.44c-0.629-0.109-1.185,0.103-1.729,0.37c-0.353,0.173-0.409,0.516-0.444,0.86
					c-0.022,0.219-0.08,0.45-0.035,0.658c0.055,0.256,0.177,0.506,0.309,0.736c0.541,0.944,1.094,1.882,1.648,2.819
					c0.559,0.944,1.124,1.885,1.687,2.826c0.337,0.564,0.675,1.127,1.013,1.691c0.03-0.001,0.059-0.001,0.089-0.002
					c0.025-0.977,0.415-1.781,1.181-2.349c0.749-0.555,1.631-0.786,2.595-0.836c-0.063-0.073-0.093-0.116-0.131-0.15
					c-0.951-0.844-1.905-1.685-2.854-2.532c-0.317-0.283-0.624-0.578-0.928-0.875c-0.385-0.376-0.764-0.759-1.141-1.143
					c-0.026-0.026-0.008-0.096-0.014-0.202c0.11,0.075,0.184,0.115,0.245,0.17c0.455,0.415,0.91,0.831,1.361,1.251
					c0.857,0.799,1.712,1.602,2.567,2.403c0.307,0.288,0.612,0.577,0.919,0.865c0.068,0.064,0.202,0.127,0.2,0.186
					c-0.017,0.41,0.316,0.559,0.553,0.774c0.098,0.089,0.24,0.191,0.358,0.187c0.655-0.026,1.285,0.108,1.902,0.288
					c0.63,0.184,1.249,0.409,1.859,0.651c0.213,0.084,0.385,0.27,0.496,0.35c0.108,0.225,0.158,0.392,0.256,0.523
					c0.268,0.36,0.566,0.698,0.832,1.06c0.208,0.282,0.385,0.587,0.58,0.89C143.798,70.147,144.263,69.803,144.748,69.444z
					 M144.929,82.905c-0.006,0.018-0.012,0.035-0.019,0.053c-0.071-0.024-0.154-0.032-0.21-0.075
					c-0.352-0.27-0.718-0.528-1.042-0.829c-0.387-0.361-0.712-0.789-1.107-1.139c-0.855-0.757-1.179-1.936-0.66-2.966
					c0.101-0.2,0.214-0.398,0.287-0.608c0.22-0.633,0.381-1.289,0.734-1.868c0.129-0.211,0.272-0.414,0.436-0.662
					c-0.018-0.058-0.06-0.188-0.102-0.32c-0.071,0.024-0.123,0.062-0.168,0.054c-0.314-0.055-0.42,0.131-0.497,0.388
					c-0.217,0.717-0.446,1.431-0.674,2.145c-0.016,0.051-0.069,0.091-0.105,0.136c-0.022-0.013-0.044-0.026-0.067-0.04
					c0.288-0.896,0.577-1.791,0.873-2.71c-0.384-0.1-0.814-0.21-1.242-0.323c-0.773-0.204-1.561-0.304-2.333-0.065
					c-0.632,0.195-1.236,0.479-1.85,0.731c-0.323,0.132-0.381,0.259-0.307,0.614c0.021,0.102,0.051,0.202,0.079,0.311
					c0.702,0.031,1.259,0.395,1.792,0.811c-0.103-0.015-0.195-0.055-0.281-0.105c-0.406-0.238-0.806-0.486-1.281-0.573
					c-0.169-0.031-0.266-0.007-0.257,0.188c0.003,0.071,0.001,0.142,0.001,0.167c0.141,0.024,0.26,0.03,0.372,0.065
					c0.728,0.225,1.199,0.769,1.651,1.337c0.091,0.115,0.194,0.226,0.311,0.313c0.684,0.505,1.037,1.187,1.074,2.025
					c0.024,0.538-0.1,1.048-0.417,1.499c-0.038,0.054-0.058,0.13-0.064,0.197c-0.024,0.293-0.037,0.587-0.057,0.881
					c-0.042,0.609-0.365,1.069-0.775,1.47c0.074,0.062,0.153,0.128,0.25,0.208c0.128-0.143,0.256-0.268,0.362-0.41
					c0.341-0.453,0.363-1.011,0.491-1.534c0.03-0.125,0.087-0.244,0.132-0.366c0.03,0.012,0.06,0.025,0.09,0.037
					c-0.191,0.87-0.199,1.811-0.974,2.415c0.759,1.247,1.503,2.47,2.271,3.732c0.121-0.259,0.209-0.475,0.32-0.68
					c0.309-0.571,0.831-0.658,1.199-0.204c0.091,0.112,0.165,0.238,0.282,0.409c0.138-0.272,0.235-0.505,0.37-0.713
					c0.083-0.129,0.207-0.273,0.343-0.317c0.37-0.121,0.638,0.106,0.889,0.352c0.207-0.209,0.394-0.435,0.619-0.612
					c0.177-0.14,0.224-0.295,0.199-0.497c-0.022-0.175-0.032-0.353-0.069-0.526c-0.132-0.622-0.273-1.242-0.412-1.868
					c-0.387,0.005-0.742,0.033-1.035-0.238c-0.531-0.49-0.671-0.652-0.629-0.777c0.491,0.357,0.771,1.091,1.591,0.881
					c0-0.236,0-0.474,0-0.745c-0.286,0-0.559,0-0.902,0C144.627,82.701,144.778,82.803,144.929,82.905z M149.763,76.265
					c-0.287,0.112-0.537,0.31-0.824,0.028c0.272-0.508,0.266-1.054,0.179-1.611c-0.028-0.177-0.121-0.245-0.292-0.244
					c-0.352,0.004-0.704,0.008-1.055,0c-0.501-0.012-1.002-0.031-1.503-0.054c-0.253-0.011-0.287-0.08-0.133-0.294
					c0.339-0.474,0.532-0.994,0.549-1.579c0.002-0.06,0.073-0.119,0.117-0.186c-0.003-0.051,0.009-0.136-0.018-0.206
					c-0.034-0.088-0.082-0.212-0.154-0.239c-0.57-0.215-1.137-0.435-1.758-0.479c-0.284-0.02-0.562-0.117-0.843-0.178
					c-0.093-0.02-0.188-0.034-0.282-0.05c0.002,0.098-0.013,0.201,0.011,0.294c0.12,0.462,0.249,0.921,0.38,1.38
					c0.013,0.046,0.046,0.093,0.083,0.126c0.459,0.411,0.927,0.812,1.378,1.231c0.282,0.262,0.448,0.597,0.496,0.935
					c0.096,0.029,0.197,0.027,0.242,0.076c0.655,0.716,1.301,1.441,1.954,2.159c0.457,0.502,0.924,0.996,1.382,1.498
					c0.049,0.053,0.085,0.133,0.094,0.204c0.062,0.463,0.109,0.928,0.171,1.391c0.103,0.768,0.213,1.534,0.319,2.301
					c0.063,0.454,0.12,0.908,0.185,1.361c0.079,0.544,0.164,1.087,0.249,1.631c0.014,0.086,0.04,0.171,0.065,0.277
					c0.046-0.044,0.071-0.059,0.083-0.08c0.385-0.699,0.74-1.416,1.165-2.09c0.194-0.307,0.162-0.528-0.015-0.787
					c-0.049-0.072-0.105-0.141-0.156-0.212c-0.157-0.221-0.313-0.443-0.508-0.72c0.107,0.026,0.132,0.024,0.14,0.035
					c0.315,0.42,0.631,0.841,0.941,1.265c0.02,0.028,0.02,0.094,0.001,0.124c-0.098,0.157-0.218,0.3-0.306,0.462
					c-0.315,0.58-0.597,1.18-0.94,1.743c-0.146,0.24-0.165,0.419-0.036,0.65c0.334,0.6,0.66,1.204,0.988,1.808
					c0.393,0.724,0.786,1.447,1.175,2.173c0.053,0.099,0.081,0.21,0.121,0.315c-0.029,0.016-0.059,0.032-0.088,0.048
					c-0.083-0.124-0.175-0.243-0.247-0.373c-0.173-0.313-0.335-0.632-0.506-0.946c-0.299-0.551-0.607-1.096-0.9-1.65
					c-0.235-0.444-0.454-0.896-0.687-1.358c-0.196,0.124-0.134,0.292-0.107,0.437c0.033,0.178,0.103,0.35,0.14,0.528
					c0.079,0.383,0.13,0.773,0.224,1.152c0.107,0.435,0.237,0.866,0.377,1.291c0.338,1.025,0.687,2.046,1.057,3.142
					c0.493-0.737,0.945-1.397,1.376-2.071c0.075-0.118,0.097-0.294,0.085-0.438c-0.019-0.224-0.096-0.442-0.136-0.665
					c-0.118-0.663-0.241-1.325-0.342-1.99c-0.098-0.644-0.179-1.29-0.252-1.937c-0.038-0.336-0.036-0.677-0.058-1.015
					c-0.07-1.057-0.145-2.113-0.215-3.169c-0.023-0.356-0.059-0.714-0.049-1.07c0.019-0.687,0.073-1.372,0.095-2.059
					c0.003-0.087-0.08-0.209-0.159-0.262c-0.303-0.204-0.632-0.369-0.926-0.583c-0.15-0.109-0.258-0.107-0.407-0.034
					c-0.109,0.053-0.232,0.078-0.349,0.116c-0.269,0.086-0.495-0.061-0.742-0.117c-0.397-0.089-0.61-0.296-0.663-0.699
					C149.892,76.756,149.82,76.517,149.763,76.265z M137.82,71.992c-0.015,0.019-0.03,0.039-0.045,0.058
					c-0.24-0.231-0.479-0.462-0.732-0.705c-0.2,0.304-0.005,0.558,0.05,0.806c0.115,0.51,0.526,0.711,0.99,0.759
					c0.245,0.025,0.554,0.142,0.75-0.137c0.336-0.479,0.366-1.036,0.328-1.589c-0.025-0.358-0.13-0.711-0.199-1.066
					c0.011-0.001,0.034-0.011,0.044-0.004c0.028,0.021,0.066,0.045,0.074,0.075c0.144,0.534,0.329,1.063,0.183,1.632
					c-0.018,0.069-0.012,0.177,0.03,0.223c0.134,0.146,0.28,0.287,0.441,0.402c0.171,0.123,0.365,0.24,0.585,0.102
					c0.267-0.168,0.471-0.384,0.453-0.728c-0.031-0.578-0.074-1.155-0.102-1.733c-0.004-0.079,0.046-0.162,0.071-0.242
					c0.069,0.028,0.151,0.041,0.204,0.087c0.223,0.193,0.438,0.394,0.654,0.595c0.778,0.721,1.277,1.597,1.507,2.635
					c0.151,0.681,0.335,1.354,0.504,2.026c0.331,0.015,0.578-0.167,0.571-0.453c-0.011-0.487,0.063-0.977-0.099-1.461
					c-0.256-0.768-0.386-1.593-0.739-2.31c-0.376-0.763-0.961-1.421-1.431-2.14c-0.13-0.2-0.47-0.304-0.33-0.629
					c-0.172-0.101-0.323-0.209-0.49-0.282c-0.535-0.233-1.063-0.499-1.619-0.665c-0.509-0.152-1.051-0.202-1.581-0.278
					c-0.272-0.039-0.562-0.097-0.824-0.046c-0.713,0.139-1.405,0.348-2.009,0.788c-0.727,0.53-0.888,1.162-0.75,1.977
					c0.038,0.224,0.15,0.372,0.35,0.478c0.207,0.109,0.341,0.274,0.374,0.525c0.1,0.742,0.204,1.484,0.326,2.222
					c0.151,0.91,0.31,1.818,0.489,2.722c0.076,0.383,0.187,0.762,0.327,1.126c0.099,0.259,0.323,0.269,0.471,0.032
					c0.078-0.125,0.117-0.298,0.112-0.447c-0.021-0.579-0.059-1.157-0.104-1.735c-0.047-0.611-0.097-1.221-0.165-1.83
					c-0.079-0.71-0.18-1.418-0.263-2.128c-0.008-0.073,0.039-0.152,0.079-0.293C136.842,70.938,137.331,71.465,137.82,71.992z
					 M145.997,92.981c-0.033-0.115-0.07-0.221-0.093-0.33c-0.085-0.401-0.167-0.445,0.233-0.64c0.367-0.179,0.747-0.344,1.082-0.573
					c0.521-0.354,0.914-0.793,0.823-1.511c-0.048-0.379-0.171-0.615-0.538-0.751c-0.421-0.156-0.553-0.064-0.555,0.385
					c0,0.054,0.011,0.112-0.004,0.161c-0.012,0.038-0.058,0.065-0.089,0.097c-0.023-0.03-0.068-0.062-0.066-0.091
					c0.011-0.168,0.041-0.334,0.049-0.502c0.039-0.84,0.085-1.68,0.106-2.52c0.017-0.686,0.017-1.373-0.002-2.059
					c-0.009-0.333-0.027-0.684-0.138-0.991c-0.161-0.446-0.403-0.864-0.625-1.286c-0.059-0.112-0.225-0.29-0.255-0.274
					c-0.139,0.075-0.257,0.198-0.362,0.321c-0.037,0.044-0.016,0.137-0.023,0.207c-0.077,0.692,0.1,1.352,0.252,2.016
					c0.093,0.408,0.198,0.819,0.227,1.233c0.056,0.8,0.005,1.598-0.249,2.376c-0.026-0.003-0.081,0.004-0.092-0.015
					c-0.212-0.357-0.402-0.729-0.634-1.073c-0.134-0.199-0.286-0.403-0.575-0.434c-0.298-0.032-0.475,0.083-0.598,0.349
					c-0.18,0.389-0.363,0.768-0.132,1.202c0.025,0.047-0.003,0.123-0.009,0.23c-0.209-0.39-0.373-0.743-0.578-1.069
					c-0.301-0.477-0.66-0.55-0.948-0.141c-0.24,0.341-0.366,0.76-0.287,1.199c0.009,0.05,0.087,0.116,0.138,0.122
					c0.047,0.005,0.137-0.055,0.147-0.099c0.028-0.129,0.021-0.265,0.036-0.398c0.009-0.08,0.033-0.159,0.051-0.238
					c0.031,0.006,0.062,0.013,0.093,0.019c-0.052,0.44-0.104,0.881-0.156,1.321c-0.2-0.223-0.347-0.447-0.482-0.678
					c-0.168-0.287-0.315-0.587-0.491-0.87c-0.264-0.423-0.578-0.818-0.812-1.257c-0.417-0.781-0.878-1.525-1.481-2.177
					c-0.186-0.2-0.388-0.219-0.604-0.064c0.047,0.652,0.364,1.177,0.713,1.698c0.394,0.59,0.757,1.201,1.12,1.812
					c0.172,0.289,0.309,0.599,0.464,0.898c0.22,0.425,0.447,0.847,0.658,1.276c0.06,0.122,0.134,0.282,0.102,0.397
					c-0.167,0.595-0.108,1.158,0.109,1.732c0.105,0.277,0.403,0.525,0.739,0.536c0.4,0.014,0.8,0.039,1.196,0.06
					c0.092,0.326,0.181,0.642,0.266,0.945C144.548,93.678,145.25,93.338,145.997,92.981z M154.375,90.461
					c-0.002,0,0.024,0.003,0.031-0.006c0.494-0.713,0.988-1.427,1.481-2.142c0.593-0.859,1.189-1.715,1.774-2.579
					c0.088-0.13,0.187-0.303,0.172-0.444c-0.067-0.621-0.177-1.237-0.265-1.856c-0.061-0.428-0.099-0.86-0.167-1.287
					c-0.134-0.84-0.29-1.676-0.27-2.533c0.003-0.121-0.04-0.242-0.048-0.364c-0.01-0.134-0.017-0.271-0.003-0.404
					c0.017-0.168-0.053-0.272-0.213-0.259c-0.262,0.022-0.52,0.1-0.781,0.111c-0.53,0.023-1.064,0.046-1.593,0.015
					c-0.379-0.023-0.753-0.134-1.146-0.209C153.317,82.531,153.401,86.533,154.375,90.461z M140.446,88.557
					c-0.231-0.433-0.412-0.841-0.652-1.212c-0.582-0.901-1.232-1.761-1.581-2.794c-0.023-0.067-0.146-0.115-0.231-0.142
					c-0.244-0.076-0.501-0.117-0.739-0.208c-0.546-0.207-1.006-0.538-1.352-1.018c-0.127-0.176-0.267-0.343-0.401-0.514
					c0.027-0.023,0.053-0.046,0.08-0.068c0.042,0.038,0.09,0.07,0.125,0.113c0.589,0.747,1.271,1.349,2.258,1.507
					c0.148,0.024,0.234,0.04,0.247-0.155c-0.074-0.03-0.155-0.058-0.233-0.094c-0.498-0.23-0.944-0.542-1.3-0.954
					c-0.336-0.39-0.612-0.831-0.933-1.234c-0.446-0.56-0.691-1.186-0.644-1.902c0.03-0.447,0.063-0.903,0.175-1.334
					c0.149-0.576,0.383-1.13,0.562-1.699c0.033-0.104-0.018-0.234-0.036-0.414c-0.451,0.384-0.587,0.844-0.716,1.296
					c-0.128,0.45-0.205,0.914-0.305,1.372c-0.023-0.004-0.047-0.008-0.07-0.012c0.038-0.294,0.051-0.595,0.119-0.882
					c0.153-0.646,0.316-1.294,0.775-1.811c0.129-0.146,0.123-0.481-0.059-0.71c-0.25,0.271-0.502,0.53-0.735,0.804
					c-0.24,0.282-0.466,0.577-0.689,0.873c-0.411,0.548-0.616,1.19-0.808,1.834c-0.075,0.25-0.152,0.509-0.16,0.767
					c-0.013,0.455-0.001,0.915,0.052,1.367c0.07,0.593,0.177,1.183,0.295,1.769c0.029,0.143,0.008,0.207-0.104,0.272
					c-0.598,0.348-0.718,0.902-0.461,1.531c0.211,0.516,0.571,0.939,1.164,0.892c0.55-0.044,0.886,0.145,1.121,0.604
					c0.008,0.016,0.023,0.028,0.033,0.043c0.58,0.888,1.431,1.41,2.41,1.734c0.613,0.203,1.253,0.284,1.902,0.295
					C139.827,88.476,140.098,88.522,140.446,88.557z M135.05,72.193c-0.183,0.138-0.286,0.215-0.387,0.292
					c-0.285,0.219-0.582,0.425-0.852,0.661c-0.261,0.228-0.497,0.486-0.742,0.732c-0.14,0.142-0.303,0.27-0.41,0.434
					c-0.307,0.471-0.589,0.958-0.883,1.438c-0.05,0.082-0.119,0.156-0.155,0.243c-0.083,0.204-0.128,0.427-0.229,0.621
					c-0.274,0.525-0.449,1.051-0.384,1.669c0.074,0.704,0.048,1.418,0.068,2.127c0.002,0.088,0.013,0.178,0.031,0.264
					c0.149,0.696,0.544,1.27,0.931,1.847c0.245,0.365,0.501,0.723,0.759,1.094c0.121-0.111,0.201-0.231,0.31-0.271
					c0.144-0.053,0.153-0.117,0.11-0.238c-0.21-0.601-0.373-1.21-0.303-1.858c0.005-0.051-0.026-0.104-0.027-0.157
					c-0.005-0.314-0.058-0.638,0.002-0.939c0.112-0.562,0.301-1.108,0.438-1.666c0.186-0.755,0.496-1.441,1.055-1.995
					c0.291-0.289,0.574-0.594,0.903-0.835c0.132-0.096,0.193-0.162,0.177-0.304c-0.032-0.283-0.07-0.564-0.107-0.846
					C135.258,73.764,135.159,73.02,135.05,72.193z M158.48,68.32c1.612,0.087,2.77-1.213,2.645-2.791
					c-0.093-1.18-1.094-2.258-2.559-2.295c-1.533-0.04-2.624,1.213-2.68,2.522C155.833,67.048,157.065,68.478,158.48,68.32z
					 M137.711,77.636c-1.387-0.179-2.45,1.265-2.458,2.454c-0.009,1.216,1.032,2.328,2.291,2.38
					c1.662,0.069,2.586-1.163,2.636-2.369C140.232,78.809,139.043,77.482,137.711,77.636z M146.547,79.058
					c-0.114-0.665-0.248-1.229-0.692-1.683c-0.642-0.656-1.439-0.835-2.276-0.638c-1.031,0.243-1.737,1.124-1.772,2.177
					c-0.029,0.859,0.353,1.532,1.053,2.009c0.406,0.276,0.856,0.466,1.375,0.343c0.202-0.048,0.415-0.052,0.611-0.115
					c0.393-0.128,0.818-0.216,1.039-0.633c0.108-0.204,0.236-0.399,0.329-0.609C146.344,79.613,146.451,79.306,146.547,79.058z
					 M160.001,60.301c-0.009-0.49-0.3-0.773-0.558-1.07c-0.518-0.596-1.219-0.862-1.96-1.036c-0.773-0.182-1.542-0.157-2.291,0.128
					c-0.675,0.257-1.349,0.52-2.019,0.79c-0.754,0.304-1.428,0.744-2.046,1.267c-0.657,0.555-1.081,1.275-1.413,2.054
					c-0.028,0.065-0.028,0.174,0.009,0.228c0.21,0.304,0.327,0.309,0.593,0.043c0.4-0.399,0.767-0.841,1.207-1.19
					c0.623-0.494,1.292-0.934,1.958-1.371c0.571-0.375,1.224-0.586,1.894-0.638c0.679-0.053,1.362-0.021,2.044,0.133
					c0.729,0.166,1.439,0.333,2.053,0.792c0.084,0.063,0.27,0.006,0.403-0.022C159.934,60.399,159.979,60.321,160.001,60.301z
					 M139.328,72.494c-0.1,0.154-0.173,0.35-0.313,0.469c-0.65,0.557-1.638,0.288-1.929-0.51c-0.085-0.233-0.191-0.457-0.31-0.738
					c-0.011,0.195,0.035,0.391-0.035,0.45c-0.25,0.211-0.118,0.446-0.101,0.677c0.005,0.062,0.008,0.125,0.016,0.187
					c0.062,0.502,0.125,1.003,0.199,1.589c0.197-0.085,0.358-0.167,0.527-0.225c0.234-0.081,0.482-0.127,0.711-0.22
					c0.601-0.242,1.219-0.387,1.87-0.383c0.4,0.002,0.801-0.02,1.199,0.007c0.299,0.02,0.598,0.085,0.888,0.161
					c0.378,0.1,0.748,0.231,1.174,0.364c-0.143-0.918-0.325-1.721-0.779-2.379c-0.146-0.016-0.253-0.008-0.345-0.042
					c-0.23-0.084-0.45-0.196-0.68-0.281c-0.344-0.128-0.448-0.045-0.487,0.314c-0.033,0.299-0.165,0.559-0.437,0.719
					C140.085,72.894,139.73,72.697,139.328,72.494z M133.085,67.493c0.331,0.47,0.647,0.92,0.996,1.417
					c0.258-1.121,1.123-1.576,2.026-1.969c0.267-0.049,0.535-0.099,0.833-0.154c-0.256-0.255-0.476-0.481-0.706-0.696
					c-0.057-0.053-0.155-0.099-0.229-0.092c-0.199,0.017-0.396,0.066-0.594,0.099C134.45,66.259,133.642,66.67,133.085,67.493z
					 M144.351,74.842c-0.167,0.179-0.148,0.253-0.009,0.395c0.316,0.32,0.637,0.657,0.857,1.043
					c0.224,0.393,0.504,0.722,0.811,1.037c0.44,0.452,0.67,1.004,0.655,1.616c-0.013,0.504-0.13,1.008-0.226,1.508
					c-0.098,0.507-0.228,1.009-0.352,1.548c0.42-0.061,0.297-0.454,0.452-0.656c0.148-0.192,0.132-0.51,0.188-0.772
					c0.189,0.643-0.342,1.127-0.366,1.692c0.354,0.124,0.305-0.161,0.395-0.339c0.018,0.147-0.001,0.282-0.031,0.413
					c-0.025,0.109-0.114,0.227-0.089,0.318c0.059,0.216,0.168,0.419,0.264,0.645c1.047-2.545-0.272-5.931-1.149-6.895
					c-0.049,0.055-0.097,0.111-0.148,0.168c-0.191-0.313-0.353-0.623-0.557-0.902C144.84,75.378,144.594,75.125,144.351,74.842z
					 M154.933,78.659c0.033-0.147,0.052-0.276,0.092-0.398c0.043-0.131,0.146-0.253,0.151-0.382c0.018-0.477,0.001-0.955,0.01-1.433
					c0.006-0.319,0.071-0.628,0.303-0.868c0.051-0.053,0.207-0.097,0.213-0.086c0.132,0.227,0.347,0.127,0.526,0.133
					c0.062,0.002,0.173-0.075,0.183-0.13c0.056-0.303,0.091-0.61,0.125-0.916c0.02-0.18-0.094-0.228-0.238-0.18
					c-0.197,0.066-0.391,0.146-0.578,0.237c-0.264,0.128-0.522,0.269-0.78,0.409c-0.469,0.255-0.937,0.515-1.405,0.772
					c0.013,0.03,0.026,0.061,0.039,0.091c0.105-0.027,0.21-0.055,0.348-0.09c0.008,0.135,0.017,0.263,0.028,0.446
					c0.138-0.046,0.272-0.062,0.369-0.131c0.104-0.074,0.174-0.197,0.259-0.299c0.172,0.156,0.197,0.46,0.161,0.757
					c-0.071,0.58-0.115,1.165-0.145,1.749C154.584,78.535,154.681,78.701,154.933,78.659z M148.847,70.163
					c-0.096,0.078-0.132,0.118-0.177,0.141c-0.792,0.41-0.93,1.259-0.742,1.989c0.189,0.731,0.749,1.09,1.42,1.311
					c0.035,0.011,0.132-0.054,0.139-0.094c0.015-0.084-0.002-0.176-0.02-0.262c-0.17-0.822-0.344-1.643-0.513-2.466
					C148.915,70.596,148.889,70.408,148.847,70.163z M139.702,82.118c-0.239-0.171-0.395,0.076-0.552,0.162
					c-0.829,0.453-1.666,0.522-2.539,0.157c-0.049-0.02-0.107-0.02-0.236-0.041c0.145,0.2,0.224,0.371,0.354,0.476
					c0.434,0.35,0.862,0.719,1.343,0.994c0.206,0.118,0.59,0.115,0.796-0.003c0.307-0.175,0.568-0.475,0.657-0.857
					C139.592,82.721,139.641,82.431,139.702,82.118z M145.092,76.552c0.017-0.023,0.034-0.047,0.051-0.07
					c-0.286-0.367-0.566-0.739-0.861-1.098c-0.051-0.063-0.195-0.13-0.242-0.103c-0.29,0.172-0.54,0.091-0.804-0.098
					c-0.414,0.556-0.617,1.197-0.828,1.864c0.438-0.168,0.85-0.396,1.288-0.476C144.148,76.489,144.626,76.552,145.092,76.552z
					 M143.273,81.345c-0.013,0.035-0.026,0.07-0.038,0.104c0.081,0.078,0.158,0.163,0.245,0.234
					c0.387,0.313,0.682,0.756,1.305,0.687c0.283-0.032,0.491,0.038,0.762-0.22c0.277-0.264,0.52-0.47,0.554-0.867
					c0.02-0.238,0.079-0.473,0.12-0.71c-0.026-0.015-0.053-0.03-0.079-0.044C145.364,81.42,144.4,81.667,143.273,81.345z
					 M138.642,77.596c0.009-0.06,0.019-0.086,0.015-0.11c-0.003-0.025-0.014-0.053-0.031-0.071
					c-0.356-0.365-0.681-0.768-1.179-0.959c-0.191-0.074-0.525,0-0.569,0.131c-0.036,0.108-0.072,0.216-0.107,0.324
					c-0.111,0.343-0.378,0.442-0.645,0.215c-0.196-0.167-0.274-0.083-0.328,0.107c-0.134,0.472-0.262,0.945-0.4,1.447
					c0.429-0.442,0.824-0.956,1.422-1.133C137.411,77.371,138.037,77.328,138.642,77.596z M161.255,72.161
					c0.141-0.181,0.299-0.361,0.431-0.559c0.229-0.342,0.269-0.741,0.205-1.126c-0.071-0.429-0.194-0.858-0.649-1.077
					c-0.164-0.079-0.26-0.065-0.261,0.134c-0.003,0.816-0.001,1.632-0.001,2.467C161.035,72.032,161.132,72.089,161.255,72.161z
					 M162.089,71.263c-0.19,0.297-0.35,0.597-0.561,0.854c-0.12,0.147-0.161,0.244-0.094,0.428c0.142,0.391,0.219,0.792,0.012,1.196
					c-0.023,0.046,0.052,0.202,0.071,0.2c0.241-0.024,0.48-0.067,0.726-0.106c-0.174-0.457-0.327-0.857-0.492-1.29
					c0.487,0,0.91,0.003,1.332-0.003c0.058-0.001,0.14-0.028,0.166-0.07c0.021-0.033-0.01-0.127-0.048-0.163
					C162.828,71.95,162.448,71.598,162.089,71.263z M133.026,67.678c-0.033-0.001-0.067-0.002-0.1-0.003
					c-0.093,0.396-0.2,0.789-0.275,1.188c-0.054,0.285,0.214,0.847,0.464,0.899c0.335,0.07,0.688,0.052,1.021,0.071
					c-0.004-0.413-0.048-0.719-0.292-0.999C133.536,68.481,133.296,68.067,133.026,67.678z M144.347,73.352
					c0.02,0.211,0.067,0.382,0.045,0.543c-0.055,0.404-0.018,0.769,0.292,1.071c0.309,0.301,0.616,0.604,0.913,0.916
					c0.128,0.135,0.229,0.297,0.369,0.483C145.983,75.041,145.377,74.113,144.347,73.352z M147.498,81.172
					c-0.021,0.157-0.035,0.306-0.062,0.452c-0.076,0.402-0.16,0.803-0.238,1.204c-0.049,0.248-0.102,0.496-0.132,0.746
					c-0.005,0.045,0.128,0.154,0.139,0.147c0.126-0.083,0.277-0.161,0.349-0.283c0.112-0.191,0.209-0.41,0.24-0.627
					C147.875,82.247,147.952,81.671,147.498,81.172z M140.952,70.143c-0.027,0.012-0.054,0.024-0.082,0.035
					c0.026,0.33,0.049,0.66,0.079,0.99c0.014,0.151,0.133,0.196,0.258,0.239c0.244,0.084,0.483,0.184,0.728,0.263
					c0.106,0.034,0.224,0.032,0.409,0.056C141.968,71.028,141.387,70.652,140.952,70.143z M153.518,73.93
					c-0.115,0.032-0.189,0.046-0.257,0.074c-0.168,0.069-0.327,0.172-0.5,0.212c-0.157,0.036-0.275,0.092-0.279,0.253
					c-0.002,0.104,0.031,0.271,0.097,0.301c0.127,0.058,0.311,0.09,0.434,0.04C153.368,74.668,153.48,74.349,153.518,73.93z
					 M152.223,74.398c-0.261,0.202-0.523,0.377-0.744,0.594c-0.068,0.067-0.073,0.281-0.016,0.367
					c0.05,0.075,0.241,0.114,0.347,0.085C152.11,75.362,152.431,74.791,152.223,74.398z M145.628,87.912
					c0.257-0.421,0.314-1.212,0.124-1.391c-0.137,0.111-0.29,0.208-0.406,0.338c-0.076,0.084-0.165,0.243-0.133,0.32
					C145.319,87.429,145.478,87.656,145.628,87.912z M155.835,74.375c0.013-0.037,0.026-0.073,0.039-0.11
					c-0.129-0.086-0.257-0.243-0.388-0.244c-0.306-0.004-0.731,0.56-0.717,0.915C155.131,74.746,155.483,74.561,155.835,74.375z
					 M155.12,73.178c0.003,0.045,0.005,0.09,0.008,0.135c0.175,0.046,0.381,0.174,0.519,0.122c0.273-0.103,0.512-0.306,0.556-0.633
					c0.005-0.036-0.15-0.143-0.184-0.126C155.713,72.832,155.418,73.008,155.12,73.178z M156.002,74.361
					c0.38-0.131,0.68-0.235,0.981-0.338c0.162-0.055,0.228-0.179,0.141-0.314c-0.05-0.078-0.195-0.147-0.289-0.137
					C156.402,73.619,156.239,73.977,156.002,74.361z M156.523,72.506c0.058,0.284,0.249,0.391,0.444,0.349
					c0.176-0.037,0.339-0.182,0.48-0.311c0.042-0.038-0.002-0.184-0.028-0.274c-0.008-0.027-0.098-0.056-0.137-0.043
					C157.032,72.311,156.786,72.408,156.523,72.506z M154.857,73.465c-0.129,0-0.211-0.021-0.274,0.004
					c-0.242,0.094-0.481,0.198-0.715,0.311c-0.045,0.022-0.097,0.114-0.084,0.153c0.023,0.069,0.087,0.166,0.146,0.175
					c0.214,0.034,0.423,0.021,0.565-0.193C154.584,73.78,154.697,73.662,154.857,73.465z M157.592,73.829
					c0.234-0.013,0.474-0.004,0.703-0.051c0.079-0.016,0.166-0.169,0.177-0.268c0.007-0.061-0.113-0.181-0.192-0.199
					C157.977,73.246,157.768,73.416,157.592,73.829z M159.528,73.766c-0.071-0.16-0.094-0.335-0.189-0.395
					c-0.138-0.088-0.378,0.114-0.502,0.395C159.044,73.766,159.242,73.766,159.528,73.766z M136.987,71.305
					c-0.032,0.013-0.063,0.025-0.095,0.038c-0.139-0.18-0.277-0.361-0.416-0.541c-0.015,0.138-0.007,0.259,0.035,0.368
					c0.039,0.104,0.097,0.255,0.175,0.275C136.77,71.466,136.886,71.357,136.987,71.305z"/>
				<path fill="#E5E787" d="M132.536,94.689c0.227-0.413,0.494-0.809,0.671-1.242c0.334-0.814,0.617-1.65,0.915-2.478
					c0.02-0.056-0.014-0.132-0.026-0.227c0.232-0.245,0.495-0.521,0.758-0.797c-0.036-0.034-0.073-0.067-0.109-0.101
					c-1.258,1.287-2.516,2.574-3.783,3.87c-0.341-0.143-0.671-0.298-1.012-0.421c-0.716-0.258-1.13-0.812-1.47-1.446
					c-0.029-0.054-0.044-0.116-0.075-0.167c-0.235-0.382-0.218-0.47,0.118-0.741c0.249-0.2,0.493-0.407,0.729-0.621
					c0.649-0.588,1.289-1.184,1.938-1.772c0.7-0.634,1.406-1.263,2.109-1.894c0.179-0.161,0.355-0.326,0.538-0.482
					c0.284-0.242,0.612-0.264,0.869-0.197c0.238,0.331,0.416,0.619,0.633,0.875c0.695,0.819,1.565,1.37,2.621,1.59
					c0.465,0.097,0.942,0.138,1.416,0.19c0.292,0.032,0.587,0.036,0.881,0.058c0.362,0.028,0.485,0.34,0.635,0.586
					c0.162,0.266,0.262,0.57,0.384,0.859c0.017,0.039,0.008,0.093,0.001,0.138c-0.108,0.628-0.102,1.238,0.128,1.853
					c0.15,0.402,0.444,0.521,0.8,0.565c0.414,0.051,0.486,0.111,0.409,0.518c-0.094,0.497-0.211,0.99-0.318,1.484
					c-2.649,0.002-5.298,0.005-7.947,0.006C133.743,94.696,133.139,94.692,132.536,94.689z"/>
				<path fill="#F8C5A9" d="M124.896,94.691c0.348-0.317,0.705-0.625,1.042-0.954c0.613-0.599,1.214-1.21,1.82-1.816
					c0.045-0.045,0.088-0.091,0.134-0.134c0.154-0.144,0.26-0.157,0.38,0.063c0.164,0.298,0.359,0.583,0.571,0.85
					c0.251,0.316,0.569,0.549,0.951,0.705c0.33,0.134,0.318,0.446,0.054,0.691c-0.218,0.202-0.442,0.397-0.664,0.595
					C127.755,94.691,126.325,94.691,124.896,94.691z"/>
				<path fill="#A7E7E2" d="M144.019,94.691c-0.062-0.277-0.124-0.554-0.189-0.845c0.234-0.023,0.492-0.026,0.74-0.078
					c0.321-0.068,0.636-0.168,0.949-0.268c0.087-0.028,0.156-0.109,0.239-0.157c0.206-0.118,0.325-0.049,0.384,0.177
					c0.094,0.361,0.147,0.743,0.429,1.028c0.034,0.034,0.04,0.095,0.059,0.143C145.759,94.691,144.889,94.691,144.019,94.691z"/>
				<path fill="#B7DFF2" d="M159.225,50.425c0.182,0.49,0.369,0.923,0.506,1.372c0.271,0.887,0.304,1.786,0.124,2.703
					c-0.102,0.519-0.12,1.054-0.175,1.583c-0.036,0.343-0.066,0.687-0.109,1.029c-0.025,0.203,0.055,0.261,0.268,0.22
					c0.611-0.118,1.225-0.224,1.838-0.329c0.459-0.079,0.921-0.138,1.378-0.227c0.389-0.076,0.772-0.181,1.215-0.287
					c-0.085,0.146-0.146,0.292-0.242,0.412c-0.654,0.816-1.061,1.765-1.476,2.71c-0.256,0.582-0.504,1.168-0.758,1.752
					c-0.059,0.135-0.059,0.223,0.09,0.319c0.604,0.387,1.18,0.824,1.803,1.176c0.291,0.165,0.667,0.18,1.005,0.265
					c0.121,0.031,0.24,0.067,0.445,0.125c-0.32,0.229-0.56,0.413-0.813,0.578c-0.919,0.602-1.624,1.393-2.109,2.377
					c-0.035,0.07-0.001,0.207,0.048,0.281c0.578,0.85,1.254,1.601,2.166,2.11c0.052,0.029,0.083,0.097,0.124,0.146
					c-0.058,0.042-0.111,0.103-0.175,0.123c-0.873,0.268-1.648,0.713-2.354,1.303c-0.083-0.139-0.144-0.278-0.238-0.39
					c-0.139-0.167-0.28-0.347-0.459-0.463c-0.346-0.224-0.398-0.39-0.342-0.813c0.051-0.384,0.006-0.78,0.009-1.171
					c0.001-0.12-0.007-0.255,0.042-0.357c0.212-0.433,0.303-0.89,0.258-1.362c-0.027-0.283-0.131-0.558-0.201-0.836
					c-0.049-0.198-0.127-0.368-0.273-0.53c-0.262-0.291-0.216-0.694-0.269-1.05c-0.125-0.844-0.257-1.68-0.708-2.426
					c0.398-0.202,0.523-0.702,0.245-1.101c-0.43-0.617-0.958-1.096-1.684-1.395c-0.698-0.288-1.399-0.404-2.137-0.403
					c-0.515,0.001-1.029-0.004-1.544,0.001c-1.017,0.01-1.948,0.272-2.799,0.858c-0.717,0.493-1.428,0.983-2.052,1.596
					c-0.473,0.465-0.649,1.069-0.87,1.66c-0.378,1.011-0.428,2.059-0.379,3.121c0.02,0.438,0.041,0.876,0.053,1.314
					c0.022,0.781,0.029,1.563,0.059,2.343c0.014,0.353,0.087,0.703,0.093,1.056c0.002,0.113-0.098,0.276-0.198,0.336
					c-0.41,0.242-0.727,0.583-0.816,1.03c-0.078,0.396-0.069,0.841,0.028,1.233c0.124,0.499,0.47,0.892,0.946,1.127
					c0.215,0.107,0.455,0.162,0.683,0.245c0.062,0.023,0.156,0.052,0.168,0.096c0.07,0.252,0.117,0.51,0.177,0.765
					c0.055,0.232,0.125,0.46,0.173,0.692c0.112,0.545-0.281,0.953-0.792,0.861c0.044-0.322,0.119-0.642,0.122-0.963
					c0.003-0.315-0.067-0.631-0.109-0.982c-0.969-0.036-1.934-0.071-2.891-0.106c0.159-0.331,0.351-0.653,0.471-0.999
					c0.124-0.361,0.193-0.744,0.251-1.123c0.012-0.077-0.113-0.231-0.203-0.259c-0.716-0.224-1.435-0.435-2.159-0.629
					c-0.304-0.082-0.626-0.096-0.93-0.177c-0.135-0.036-0.246-0.163-0.399-0.269c0.642-0.488,1.249-0.885,1.776-1.369
					c0.384-0.353,0.676-0.812,0.982-1.242c0.06-0.084,0.004-0.232-0.154-0.31c-0.734-0.365-1.474-0.726-2.181-1.14
					c-0.414-0.243-0.761-0.598-1.159-0.874c-0.219-0.152-0.477-0.249-0.722-0.362c-0.284-0.131-0.572-0.253-0.852-0.376
					c0.439-0.421,0.984-0.468,1.523-0.55c0.919-0.141,1.871-0.119,2.743-0.489c0.414-0.176,0.795-0.431,1.183-0.664
					c0.039-0.023,0.054-0.168,0.021-0.215c-0.594-0.859-1.207-1.703-1.793-2.567c-0.472-0.695-0.914-1.409-1.366-2.117
					c-0.126-0.198-0.239-0.406-0.393-0.669c1.077,0.137,2.1,0.401,3.152,0.335c1.054-0.066,2.109-0.134,3.191-0.202
					c-0.265-0.463,0.004-0.849,0.055-1.243c0.09-0.695,0.141-1.387,0.026-2.078c-0.205-1.22-0.429-2.437-0.651-3.655
					c-0.052-0.283-0.129-0.561-0.189-0.842c-0.009-0.043,0.009-0.091,0.018-0.173c0.495,0.394,1.007,0.72,1.417,1.145
					c0.529,0.548,1.177,0.937,1.732,1.443c0.346,0.316,0.67,0.658,0.998,0.994c0.559,0.572,1.116,1.148,1.67,1.724
					c0.135,0.141,0.267,0.287,0.386,0.442c0.13,0.169,0.256,0.123,0.382,0.012c0.121-0.108,0.235-0.224,0.346-0.343
					c0.48-0.513,0.958-1.029,1.437-1.544c0.705-0.758,1.3-1.594,1.772-2.516c0.107-0.208,0.19-0.429,0.301-0.634
					C159.043,50.543,159.135,50.499,159.225,50.425z"/>
				<path fill="#DDD1C7" d="M160.459,63.866c-0.359-0.428-0.854-0.621-1.372-0.738c-0.591-0.134-1.169-0.06-1.727,0.204
					c-0.844,0.4-1.404,1.034-1.574,1.953c-0.223,1.203,0.232,2.14,1.236,2.818c0.978,0.661,2.42,0.563,3.301-0.236
					c0.167-0.151,0.342-0.294,0.553-0.474c-0.04,1.497-0.079,2.958-0.12,4.469c-0.342-0.1-0.666-0.194-0.99-0.288
					c-0.011,0.036-0.022,0.072-0.033,0.108c0.187,0.071,0.375,0.137,0.559,0.214c0.232,0.096,0.475,0.178,0.687,0.309
					c0.13,0.081,0.251,0.226,0.306,0.369c0.181,0.473,0.124,0.942-0.093,1.396c-0.112,0.234-0.295,0.373-0.544,0.414
					c-0.382,0.063-0.766,0.11-1.149,0.165c-0.065,0.009-0.128,0.029-0.263,0.061c0.408,0.225,0.816-0.03,1.146,0.142
					c-0.174,0.472-0.326,0.897-0.489,1.318c-0.059,0.153-0.115,0.323-0.223,0.438c-0.43,0.461-0.859,0.919-1.419,1.245
					c-0.857,0.499-1.779,0.73-2.753,0.804c-0.087,0.007-0.172,0.052-0.257,0.046c-0.057-0.004-0.137-0.053-0.158-0.102
					c-0.017-0.04,0.04-0.11,0.063-0.168c0.048-0.118,0.132-0.234,0.136-0.354c0.015-0.496,0.002-0.993,0.008-1.489
					c0.005-0.331,0.086-0.64,0.326-0.89c0.218,0.259,0.512,0.141,0.756,0.11c0.09-0.011,0.171-0.294,0.208-0.464
					c0.047-0.215,0.083-0.446,0.053-0.661c-0.041-0.298,0.131-0.359,0.346-0.418c0.285-0.077,0.564-0.198,0.854-0.234
					c0.363-0.045,0.734-0.032,1.101-0.028c0.439,0.005,0.88,0.061,1.314,0.026c0.143-0.011,0.335-0.212,0.391-0.368
					c0.247-0.684-0.155-1.044-0.732-1.324c-0.424-0.206-0.909-0.31-1.379-0.386c-0.276-0.044-0.58,0.035-0.864,0.096
					c-0.743,0.159-1.473,0.388-2.127,0.772c-0.665,0.39-1.353,0.708-2.073,0.974c-0.49,0.181-0.989,0.354-1.451,0.595
					c-0.617,0.322-1.119,0.782-1.275,1.504c-0.05,0.231-0.079,0.483-0.042,0.712c0.061,0.371,0.432,0.585,0.791,0.444
					c0.41-0.161,0.798-0.378,1.188-0.585c0.245-0.13,0.476-0.286,0.724-0.438c0.107,0.03,0.246,0.069,0.408,0.114
					c-0.024,0.22,0.091,0.358,0.338,0.283c0.169-0.052,0.318-0.171,0.489-0.267c-0.062,0.812-0.127,1.647-0.191,2.485
					c-0.915-0.059-1.669-0.509-2.415-1.052c0.267-0.205,0.53-0.403,0.788-0.608c0.039-0.031,0.055-0.09,0.082-0.136
					c-0.061,0.006-0.134-0.008-0.182,0.021c-0.387,0.234-0.753,0.513-1.159,0.706c-0.384,0.183-0.79,0.139-1.195-0.047
					c-0.303-0.139-0.268-0.404-0.328-0.632c-0.194-0.737,0.113-1.358,0.489-1.958c0.088-0.141,0.177-0.282,0.256-0.428
					c0.013-0.024-0.025-0.075-0.064-0.182c-0.196,0.308-0.365,0.572-0.557,0.875c-0.298-1.083-0.617-2.128-0.866-3.189
					c-0.152-0.649-0.222-1.322-0.284-1.988c-0.066-0.711-0.087-1.427-0.113-2.141c-0.028-0.781-0.036-1.562-0.057-2.343
					c-0.012-0.429-0.027-0.859-0.055-1.287c-0.052-0.812,0.177-1.564,0.477-2.302c0.152-0.375,0.249-0.796,0.489-1.105
					c0.328-0.422,0.747-0.785,1.166-1.123c0.442-0.357,0.916-0.683,1.405-0.974c0.528-0.313,1.105-0.522,1.728-0.568
					c0.401-0.029,0.802-0.053,1.203-0.079c0.007,0.028,0.014,0.056,0.022,0.084c-0.359,0.124-0.719,0.244-1.076,0.373
					c-0.283,0.102-0.572,0.193-0.839,0.327c-0.443,0.222-0.871,0.473-1.303,0.716c-1.146,0.645-1.966,1.581-2.473,2.792
					c-0.095,0.227-0.01,0.512,0.209,0.649c0.219,0.137,0.391,0.028,0.566-0.118c0.925-0.771,1.829-1.57,2.791-2.291
					c0.993-0.744,2.161-1.006,3.386-0.871c0.702,0.078,1.401,0.244,2.078,0.445c0.367,0.109,0.726,0.334,1.014,0.589
					c0.192,0.17,0.281,0.479,0.366,0.742c0.126,0.388,0.22,0.789,0.303,1.189c0.082,0.393,0.133,0.792,0.197,1.188
					C160.484,63.836,160.472,63.851,160.459,63.866z M152.289,69.024c1.722-0.009,3.045-1.332,3.05-2.899
					c0.005-1.69-1.323-2.953-2.946-2.997c-1.843-0.05-3.124,1.318-3.167,2.891C149.18,67.672,150.654,69.047,152.289,69.024z
					 M155.992,67.926c-0.021,0.007-0.041,0.014-0.062,0.021c0.13,0.536,0.331,1.067,0.372,1.61c0.041,0.554,0.137,1.139-0.129,1.717
					c-0.149-0.033-0.308-0.034-0.432-0.101c-0.445-0.24-0.536-0.686-0.611-1.133c-0.042-0.25-0.08-0.5-0.12-0.75
					c-0.025,0.003-0.05,0.005-0.076,0.008c-0.006,0.057-0.024,0.115-0.016,0.17c0.03,0.217,0.068,0.433,0.103,0.649
					c0.078,0.471,0.22,0.904,0.664,1.168c0.313,0.186,0.663,0.074,0.68-0.268c0.034-0.665,0.052-1.337-0.009-1.998
					C156.322,68.647,156.119,68.29,155.992,67.926z M159.89,69.137c-0.006-0.029-0.012-0.057-0.019-0.086
					c-0.066,0.02-0.148,0.021-0.194,0.063c-0.507,0.449-1.103,0.607-1.726,0.379c-0.34-0.125-0.615-0.429-0.919-0.652
					c-0.076-0.056-0.154-0.11-0.232-0.165c-0.02,0.026-0.04,0.052-0.06,0.077c0.218,0.402,0.608,0.634,0.993,0.831
					C158.551,70.003,159.257,69.718,159.89,69.137z M153.976,69.019c-0.057,0.019-0.122,0.027-0.17,0.06
					c-0.241,0.161-0.467,0.344-0.716,0.489c-0.528,0.306-1.09,0.419-1.667,0.148c-0.282-0.132-0.541-0.316-0.814-0.469
					c-0.048-0.027-0.117-0.017-0.242-0.032C151.721,70.44,152.796,70.13,153.976,69.019z M152.53,62.28
					c-0.054,0.039-0.108,0.078-0.162,0.117c0.056,0.025,0.11,0.064,0.169,0.071c0.228,0.031,0.457,0.051,0.686,0.076
					c0.603,0.065,1.025,0.455,1.468,0.811c0.093,0.074,0.21,0.118,0.316,0.176c-0.071-0.095-0.133-0.2-0.216-0.284
					C154.175,62.623,153.438,62.283,152.53,62.28z M156.278,63.342c0.023-0.002,0.045-0.003,0.068-0.005
					c0.054-0.108,0.103-0.22,0.165-0.323c0.188-0.315,0.347-0.674,0.736-0.785c0.376-0.107,0.767-0.163,1.15-0.249
					c0.052-0.012,0.096-0.062,0.144-0.095c-0.059-0.021-0.121-0.067-0.176-0.06c-0.191,0.025-0.378,0.093-0.568,0.099
					c-0.823,0.027-1.229,0.565-1.535,1.228C156.238,63.203,156.271,63.278,156.278,63.342z"/>
				<path fill="#FEFEFE" d="M144.748,69.444c-0.486,0.359-0.951,0.703-1.43,1.057c-0.195-0.302-0.373-0.607-0.58-0.89
					c-0.266-0.362-0.564-0.699-0.832-1.06c-0.098-0.132-0.148-0.298-0.256-0.523c-0.111-0.081-0.283-0.266-0.496-0.35
					c-0.61-0.241-1.229-0.467-1.859-0.651c-0.617-0.18-1.247-0.313-1.902-0.288c-0.118,0.005-0.26-0.098-0.358-0.187
					c-0.237-0.215-0.57-0.365-0.553-0.774c0.002-0.059-0.132-0.122-0.2-0.186c-0.307-0.288-0.612-0.578-0.919-0.865
					c-0.855-0.802-1.71-1.604-2.567-2.403c-0.451-0.42-0.905-0.836-1.361-1.251c-0.061-0.055-0.135-0.095-0.245-0.17
					c0.006,0.106-0.012,0.175,0.014,0.202c0.376,0.385,0.756,0.767,1.141,1.143c0.304,0.297,0.611,0.592,0.928,0.875
					c0.949,0.847,1.903,1.688,2.854,2.532c0.038,0.034,0.068,0.077,0.131,0.15c-0.964,0.05-1.846,0.281-2.595,0.836
					c-0.766,0.568-1.156,1.371-1.181,2.349c-0.03,0.001-0.059,0.001-0.089,0.002c-0.338-0.564-0.676-1.127-1.013-1.691
					c-0.563-0.942-1.128-1.882-1.687-2.826c-0.554-0.937-1.107-1.874-1.648-2.819c-0.132-0.23-0.254-0.48-0.309-0.736
					c-0.044-0.207,0.013-0.438,0.035-0.658c0.035-0.344,0.091-0.687,0.444-0.86c0.544-0.266,1.1-0.479,1.729-0.37
					c0.384,0.067,0.712,0.242,1.041,0.44c0.493,0.296,1.037,0.516,1.507,0.843c0.95,0.661,1.864,1.374,2.795,2.062
					c0.853,0.63,1.711,1.253,2.564,1.882c0.868,0.64,1.734,1.284,2.6,1.927c0.592,0.439,1.189,0.871,1.771,1.322
					c0.764,0.592,1.516,1.2,2.275,1.799C144.56,69.355,144.636,69.383,144.748,69.444z"/>
				<path fill="#F8C5A9" d="M144.929,82.905c-0.151-0.102-0.301-0.204-0.52-0.352c0.343,0,0.617,0,0.902,0c0,0.27,0,0.509,0,0.745
					c-0.82,0.21-1.1-0.524-1.591-0.881c-0.042,0.125,0.098,0.287,0.629,0.777c0.293,0.271,0.648,0.242,1.035,0.238
					c0.139,0.626,0.28,1.246,0.412,1.868c0.037,0.172,0.047,0.35,0.069,0.526c0.025,0.202-0.022,0.357-0.199,0.497
					c-0.225,0.178-0.412,0.403-0.619,0.612c-0.251-0.246-0.519-0.473-0.889-0.352c-0.136,0.044-0.26,0.188-0.343,0.317
					c-0.135,0.208-0.232,0.441-0.37,0.713c-0.117-0.17-0.191-0.296-0.282-0.409c-0.368-0.454-0.89-0.367-1.199,0.204
					c-0.111,0.204-0.199,0.42-0.32,0.68c-0.768-1.262-1.512-2.485-2.271-3.732c0.775-0.604,0.782-1.545,0.974-2.415
					c-0.03-0.012-0.06-0.025-0.09-0.037c-0.045,0.122-0.101,0.241-0.132,0.366c-0.127,0.523-0.15,1.081-0.491,1.534
					c-0.106,0.141-0.234,0.266-0.362,0.41c-0.096-0.08-0.176-0.146-0.25-0.208c0.41-0.401,0.733-0.861,0.775-1.47
					c0.02-0.293,0.033-0.587,0.057-0.881c0.005-0.068,0.026-0.143,0.064-0.197c0.317-0.451,0.441-0.96,0.417-1.499
					c-0.037-0.839-0.391-1.521-1.074-2.025c-0.117-0.086-0.22-0.198-0.311-0.313c-0.452-0.569-0.923-1.112-1.651-1.337
					c-0.111-0.034-0.231-0.041-0.372-0.065c0-0.025,0.003-0.096-0.001-0.167c-0.009-0.194,0.089-0.219,0.257-0.188
					c0.475,0.087,0.875,0.336,1.281,0.573c0.086,0.05,0.178,0.09,0.281,0.105c-0.533-0.417-1.09-0.78-1.792-0.811
					c-0.028-0.109-0.057-0.209-0.079-0.311c-0.074-0.355-0.016-0.482,0.307-0.614c0.614-0.252,1.218-0.536,1.85-0.731
					c0.772-0.238,1.56-0.139,2.333,0.065c0.429,0.113,0.858,0.223,1.242,0.323c-0.296,0.919-0.584,1.815-0.873,2.71
					c0.022,0.013,0.044,0.026,0.067,0.04c0.036-0.045,0.089-0.084,0.105-0.136c0.229-0.714,0.457-1.428,0.674-2.145
					c0.078-0.256,0.183-0.443,0.497-0.388c0.045,0.008,0.097-0.03,0.168-0.054c0.042,0.132,0.084,0.262,0.102,0.32
					c-0.164,0.248-0.307,0.451-0.436,0.662c-0.354,0.579-0.515,1.235-0.734,1.868c-0.073,0.211-0.186,0.408-0.287,0.608
					c-0.52,1.029-0.195,2.209,0.66,2.966c0.395,0.35,0.72,0.779,1.107,1.139c0.324,0.302,0.689,0.559,1.042,0.829
					c0.056,0.043,0.14,0.051,0.21,0.075C144.916,82.94,144.922,82.922,144.929,82.905z M141.215,86.09
					c0.025-0.002,0.051-0.005,0.076-0.007c0.104-0.248,0.211-0.495,0.312-0.744c0.283-0.696,0.852-1.149,1.401-1.61
					c0.326-0.275,0.875-0.161,1.101,0.195c0.154,0.243,0.284,0.501,0.432,0.749c0.052,0.086,0.126,0.159,0.189,0.237
					c0.024-0.018,0.049-0.037,0.073-0.055c-0.192-0.437-0.405-0.864-0.722-1.23c-0.196-0.227-0.874-0.274-1.109-0.084
					c-0.261,0.212-0.518,0.431-0.767,0.657c-0.518,0.469-0.762,1.104-1.019,1.728C141.165,85.969,141.203,86.035,141.215,86.09z
					 M140.106,78.155c0.028-0.019,0.056-0.037,0.083-0.056c-0.041-0.088-0.075-0.179-0.124-0.262
					c-0.433-0.726-0.859-1.457-1.541-1.993c-0.102-0.08-0.175-0.17-0.253,0.039C139.128,76.432,139.535,77.362,140.106,78.155z
					 M141.235,82.482c0.122,0.111,0.196,0.182,0.275,0.248c0.281,0.233,0.718,0.29,0.898,0.121c0.29-0.273,0.345-0.701,0.132-1.037
					c-0.07-0.111-0.137-0.226-0.221-0.325c-0.085-0.1-0.181-0.203-0.325-0.185c0.176,0.24,0.352,0.447,0.49,0.677
					c0.16,0.267,0.087,0.536-0.195,0.771c-0.207,0.172-0.41,0.1-0.598-0.052c-0.082-0.066-0.161-0.139-0.25-0.192
					C141.399,82.481,141.334,82.492,141.235,82.482z M143.705,84.45c-0.163-0.239-0.44-0.209-0.553-0.129
					c-0.283,0.198-0.505,0.482-0.745,0.736c-0.004,0.004,0.067,0.078,0.106,0.124C142.823,84.772,143.063,84.3,143.705,84.45z
					 M139.557,84.454c0.456,0.076,0.995-0.804,0.781-1.243C140.206,83.738,140.038,84.194,139.557,84.454z M142.097,75.231
					c-0.466,0.378-0.53,0.889-0.496,1.432C141.679,76.157,141.777,75.657,142.097,75.231z"/>
				<path fill="#FEFEFE" d="M149.763,76.265c0.056,0.252,0.128,0.491,0.16,0.736c0.053,0.403,0.266,0.609,0.663,0.699
					c0.247,0.056,0.473,0.204,0.742,0.117c0.117-0.038,0.24-0.062,0.349-0.116c0.149-0.073,0.258-0.074,0.407,0.034
					c0.295,0.214,0.624,0.379,0.926,0.583c0.079,0.053,0.162,0.175,0.159,0.262c-0.022,0.687-0.076,1.372-0.095,2.059
					c-0.01,0.356,0.026,0.713,0.049,1.07c0.07,1.057,0.145,2.113,0.215,3.169c0.023,0.338,0.021,0.679,0.058,1.015
					c0.072,0.647,0.154,1.293,0.252,1.937c0.101,0.665,0.224,1.328,0.342,1.99c0.04,0.223,0.117,0.441,0.136,0.665
					c0.012,0.144-0.009,0.321-0.085,0.438c-0.431,0.674-0.883,1.334-1.376,2.071c-0.37-1.096-0.719-2.117-1.057-3.142
					c-0.14-0.426-0.269-0.856-0.377-1.291c-0.094-0.379-0.145-0.769-0.224-1.152c-0.037-0.178-0.107-0.349-0.14-0.528
					c-0.027-0.145-0.09-0.314,0.107-0.437c0.233,0.462,0.452,0.914,0.687,1.358c0.293,0.554,0.601,1.099,0.9,1.65
					c0.171,0.314,0.332,0.633,0.506,0.946c0.072,0.13,0.164,0.249,0.247,0.373c0.029-0.016,0.059-0.032,0.088-0.048
					c-0.04-0.105-0.068-0.217-0.121-0.315c-0.389-0.726-0.782-1.45-1.175-2.173c-0.328-0.603-0.654-1.208-0.988-1.808
					c-0.129-0.231-0.11-0.411,0.036-0.65c0.343-0.563,0.625-1.163,0.94-1.743c0.088-0.162,0.208-0.305,0.306-0.462
					c0.019-0.031,0.019-0.096-0.001-0.124c-0.31-0.424-0.626-0.845-0.941-1.265c-0.008-0.011-0.033-0.009-0.14-0.035
					c0.195,0.277,0.351,0.499,0.508,0.72c0.051,0.072,0.106,0.14,0.156,0.212c0.177,0.259,0.208,0.479,0.015,0.787
					c-0.425,0.674-0.78,1.391-1.165,2.09c-0.012,0.022-0.037,0.037-0.083,0.08c-0.025-0.106-0.051-0.191-0.065-0.277
					c-0.085-0.543-0.17-1.086-0.249-1.631c-0.066-0.453-0.123-0.908-0.185-1.361c-0.106-0.767-0.217-1.534-0.319-2.301
					c-0.062-0.463-0.11-0.928-0.171-1.391c-0.01-0.072-0.046-0.151-0.094-0.204c-0.458-0.502-0.925-0.995-1.382-1.498
					c-0.653-0.718-1.299-1.443-1.954-2.159c-0.045-0.049-0.145-0.048-0.242-0.076c-0.047-0.338-0.213-0.673-0.496-0.935
					c-0.451-0.419-0.919-0.82-1.378-1.231c-0.036-0.033-0.069-0.08-0.083-0.126c-0.13-0.459-0.259-0.918-0.38-1.38
					c-0.024-0.093-0.008-0.196-0.011-0.294c0.094,0.017,0.189,0.03,0.282,0.05c0.281,0.06,0.56,0.158,0.843,0.178
					c0.621,0.044,1.188,0.265,1.758,0.479c0.072,0.027,0.12,0.15,0.154,0.239c0.027,0.07,0.015,0.156,0.018,0.206
					c-0.044,0.068-0.115,0.126-0.117,0.186c-0.018,0.586-0.21,1.106-0.549,1.579c-0.153,0.214-0.119,0.283,0.133,0.294
					c0.501,0.022,1.002,0.042,1.503,0.054c0.352,0.008,0.704,0.004,1.055,0c0.171-0.002,0.264,0.066,0.292,0.244
					c0.087,0.557,0.093,1.103-0.179,1.611C149.227,76.576,149.477,76.378,149.763,76.265z M152.027,78.381
					c-0.023-0.013-0.046-0.026-0.069-0.039c-0.044,0.051-0.096,0.098-0.131,0.155c-0.433,0.694-0.846,1.402-1.305,2.078
					c-0.175,0.258-0.18,0.428,0.031,0.641c0.191,0.193,0.361,0.406,0.541,0.61c0.022-0.018,0.045-0.035,0.067-0.053
					c-0.213-0.299-0.426-0.599-0.636-0.894c0.27-0.425,0.561-0.832,0.797-1.267C151.546,79.197,151.884,78.838,152.027,78.381z
					 M151.215,81.985c0.024-0.004,0.048-0.007,0.072-0.011c-0.02-0.045-0.041-0.089-0.061-0.134
					c-0.017,0.007-0.034,0.014-0.05,0.021C151.188,81.903,151.202,81.944,151.215,81.985z M151.336,81.997
					c-0.02,0.012-0.039,0.025-0.059,0.037c0.024,0.04,0.048,0.08,0.071,0.121c0.014-0.007,0.029-0.014,0.043-0.021
					C151.373,82.088,151.354,82.042,151.336,81.997z"/>
				<path fill="#DDD1C7" d="M137.82,71.992c-0.489-0.527-0.978-1.054-1.514-1.632c-0.04,0.141-0.088,0.22-0.079,0.293
					c0.083,0.71,0.184,1.418,0.263,2.128c0.067,0.609,0.118,1.219,0.165,1.83c0.044,0.578,0.083,1.156,0.104,1.735
					c0.005,0.149-0.034,0.322-0.112,0.447c-0.148,0.237-0.371,0.227-0.471-0.032c-0.14-0.364-0.251-0.744-0.327-1.126
					c-0.179-0.904-0.338-1.813-0.489-2.722c-0.122-0.738-0.227-1.48-0.326-2.222c-0.034-0.251-0.168-0.416-0.374-0.525
					c-0.201-0.105-0.312-0.253-0.35-0.478c-0.138-0.815,0.023-1.447,0.75-1.977c0.604-0.44,1.296-0.649,2.009-0.788
					c0.262-0.051,0.552,0.007,0.824,0.046c0.53,0.077,1.072,0.126,1.581,0.278c0.556,0.167,1.084,0.432,1.619,0.665
					c0.167,0.073,0.318,0.182,0.49,0.282c-0.14,0.325,0.199,0.429,0.33,0.629c0.469,0.72,1.055,1.378,1.431,2.14
					c0.353,0.717,0.483,1.542,0.739,2.31c0.161,0.484,0.087,0.973,0.099,1.461c0.007,0.285-0.24,0.468-0.571,0.453
					c-0.168-0.673-0.353-1.346-0.504-2.026c-0.23-1.038-0.73-1.914-1.507-2.635c-0.216-0.2-0.431-0.402-0.654-0.595
					c-0.053-0.046-0.135-0.059-0.204-0.087c-0.025,0.081-0.075,0.163-0.071,0.242c0.028,0.578,0.071,1.155,0.102,1.733
					c0.019,0.344-0.186,0.56-0.453,0.728c-0.22,0.138-0.413,0.02-0.585-0.102c-0.161-0.115-0.307-0.256-0.441-0.402
					c-0.042-0.046-0.048-0.154-0.03-0.223c0.147-0.569-0.038-1.098-0.183-1.632c-0.008-0.03-0.046-0.054-0.074-0.075
					c-0.01-0.007-0.033,0.003-0.044,0.004c0.069,0.355,0.174,0.708,0.199,1.066c0.038,0.553,0.008,1.11-0.328,1.589
					c-0.196,0.279-0.505,0.163-0.75,0.137c-0.465-0.048-0.876-0.249-0.99-0.759c-0.056-0.248-0.25-0.502-0.05-0.806
					c0.253,0.243,0.492,0.474,0.732,0.705C137.79,72.031,137.805,72.011,137.82,71.992z M138.587,69.384
					c0.28-0.003,0.371-0.214,0.379-0.358c0.01-0.196-0.106-0.399-0.168-0.598c-0.048,0.005-0.096,0.01-0.145,0.014
					C138.792,68.771,138.905,69.097,138.587,69.384z M139.852,68.455c0.479,0.108,0.324,0.453,0.301,0.778
					c0.292-0.303,0.31-0.494,0.082-0.709C140.157,68.45,140.09,68.215,139.852,68.455z M136.096,69.598
					c0.015,0.035,0.03,0.069,0.045,0.104c0.114-0.038,0.328-0.079,0.327-0.113c-0.007-0.207-0.063-0.412-0.102-0.618
					c-0.042,0.008-0.085,0.016-0.127,0.025c0.029,0.164,0.058,0.328,0.083,0.468C136.236,69.515,136.166,69.556,136.096,69.598z"/>
				<path fill="#DDD1C7" d="M145.997,92.981c-0.747,0.357-1.449,0.697-2.275,0.554c-0.085-0.303-0.174-0.619-0.266-0.945
					c-0.396-0.02-0.796-0.046-1.196-0.06c-0.336-0.011-0.634-0.259-0.739-0.536c-0.217-0.575-0.275-1.137-0.109-1.732
					c0.032-0.115-0.042-0.275-0.102-0.397c-0.211-0.429-0.438-0.851-0.658-1.276c-0.155-0.299-0.292-0.609-0.464-0.898
					c-0.362-0.61-0.725-1.222-1.12-1.812c-0.348-0.521-0.666-1.046-0.713-1.698c0.217-0.155,0.418-0.136,0.604,0.064
					c0.604,0.651,1.064,1.396,1.481,2.177c0.234,0.438,0.548,0.833,0.812,1.257c0.176,0.282,0.323,0.582,0.491,0.87
					c0.135,0.231,0.282,0.455,0.482,0.678c0.052-0.44,0.104-0.881,0.156-1.321c-0.031-0.006-0.062-0.013-0.093-0.019
					c-0.018,0.079-0.042,0.158-0.051,0.238c-0.015,0.133-0.008,0.269-0.036,0.398c-0.01,0.044-0.099,0.104-0.147,0.099
					c-0.051-0.005-0.129-0.072-0.138-0.122c-0.078-0.439,0.047-0.857,0.287-1.199c0.287-0.409,0.647-0.336,0.948,0.141
					c0.206,0.326,0.369,0.678,0.578,1.069c0.006-0.107,0.034-0.183,0.009-0.23c-0.231-0.434-0.049-0.813,0.132-1.202
					c0.123-0.266,0.3-0.38,0.598-0.349c0.289,0.031,0.441,0.235,0.575,0.434c0.231,0.344,0.422,0.715,0.634,1.073
					c0.011,0.019,0.067,0.011,0.092,0.015c0.254-0.779,0.304-1.576,0.249-2.376c-0.029-0.415-0.134-0.826-0.227-1.233
					c-0.152-0.665-0.329-1.324-0.252-2.016c0.008-0.07-0.014-0.164,0.023-0.207c0.105-0.123,0.223-0.246,0.362-0.321
					c0.029-0.016,0.195,0.162,0.255,0.274c0.223,0.422,0.464,0.84,0.625,1.286c0.111,0.308,0.128,0.658,0.138,0.991
					c0.02,0.686,0.02,1.373,0.002,2.059c-0.021,0.84-0.067,1.68-0.106,2.52c-0.008,0.168-0.038,0.334-0.049,0.502
					c-0.002,0.029,0.043,0.061,0.066,0.091c0.031-0.032,0.077-0.059,0.089-0.097c0.015-0.049,0.004-0.107,0.004-0.161
					c0.002-0.449,0.134-0.542,0.555-0.385c0.366,0.136,0.489,0.372,0.538,0.751c0.091,0.718-0.302,1.157-0.823,1.511
					c-0.335,0.228-0.715,0.394-1.082,0.573c-0.4,0.195-0.318,0.239-0.233,0.64C145.927,92.76,145.964,92.866,145.997,92.981z"/>
				<path fill="#A7E7E2" d="M154.375,90.461c-0.974-3.927-1.058-7.929-1.029-11.957c0.393,0.075,0.767,0.186,1.146,0.209
					c0.529,0.032,1.062,0.009,1.593-0.015c0.261-0.011,0.519-0.09,0.781-0.111c0.16-0.013,0.229,0.091,0.213,0.259
					c-0.013,0.133-0.006,0.27,0.003,0.404c0.009,0.122,0.051,0.243,0.048,0.364c-0.02,0.857,0.136,1.693,0.27,2.533
					c0.068,0.427,0.107,0.859,0.167,1.287c0.088,0.619,0.198,1.235,0.265,1.856c0.015,0.141-0.084,0.314-0.172,0.444
					c-0.585,0.864-1.182,1.72-1.774,2.579c-0.493,0.714-0.986,1.428-1.481,2.142C154.399,90.464,154.374,90.461,154.375,90.461z"/>
				<path fill="#F8C5A9" d="M140.446,88.557c-0.348-0.035-0.619-0.081-0.891-0.085c-0.649-0.011-1.29-0.092-1.902-0.295
					c-0.978-0.325-1.83-0.846-2.41-1.734c-0.01-0.015-0.025-0.027-0.033-0.043c-0.235-0.459-0.571-0.648-1.121-0.604
					c-0.593,0.048-0.953-0.376-1.164-0.892c-0.258-0.629-0.137-1.184,0.461-1.531c0.113-0.066,0.133-0.13,0.104-0.272
					c-0.118-0.586-0.225-1.176-0.295-1.769c-0.053-0.452-0.065-0.912-0.052-1.367c0.007-0.257,0.085-0.517,0.16-0.767
					c0.193-0.644,0.398-1.286,0.808-1.834c0.222-0.297,0.449-0.591,0.689-0.873c0.233-0.275,0.486-0.533,0.735-0.804
					c0.182,0.229,0.188,0.564,0.059,0.71c-0.459,0.518-0.622,1.165-0.775,1.811c-0.068,0.287-0.081,0.587-0.119,0.882
					c0.023,0.004,0.047,0.008,0.07,0.012c0.1-0.458,0.177-0.922,0.305-1.372c0.128-0.452,0.265-0.913,0.716-1.296
					c0.018,0.18,0.069,0.31,0.036,0.414c-0.18,0.569-0.413,1.123-0.562,1.699c-0.112,0.431-0.145,0.887-0.175,1.334
					c-0.047,0.717,0.198,1.343,0.644,1.902c0.321,0.403,0.597,0.845,0.933,1.234c0.356,0.412,0.802,0.724,1.3,0.954
					c0.078,0.036,0.159,0.065,0.233,0.094c-0.013,0.195-0.099,0.179-0.247,0.155c-0.987-0.157-1.669-0.759-2.258-1.507
					c-0.034-0.044-0.083-0.076-0.125-0.113c-0.027,0.023-0.053,0.046-0.08,0.068c0.134,0.171,0.274,0.338,0.401,0.514
					c0.345,0.48,0.805,0.811,1.352,1.018c0.238,0.09,0.495,0.132,0.739,0.208c0.086,0.027,0.209,0.075,0.231,0.142
					c0.349,1.034,0.999,1.894,1.581,2.794C140.034,87.716,140.216,88.124,140.446,88.557z M134.631,77.755
					c-0.42,0.564-0.191,2.611,0.294,2.926c-0.131-0.5-0.317-0.969-0.364-1.451C134.513,78.746,134.602,78.247,134.631,77.755z
					 M136.164,83.966c0.468,0.448,0.945,0.669,1.487,0.746c0.061,0.009,0.129-0.034,0.194-0.052
					c-0.05-0.031-0.096-0.079-0.151-0.091c-0.477-0.103-0.926-0.257-1.294-0.599C136.37,83.94,136.286,83.966,136.164,83.966z"/>
				<path fill="#926135" d="M135.05,72.193c0.109,0.827,0.208,1.572,0.306,2.316c0.037,0.282,0.075,0.564,0.107,0.846
					c0.016,0.142-0.045,0.208-0.177,0.304c-0.328,0.241-0.611,0.546-0.903,0.835c-0.558,0.554-0.868,1.24-1.055,1.995
					c-0.138,0.558-0.326,1.104-0.438,1.666c-0.06,0.301-0.007,0.625-0.002,0.939c0.001,0.052,0.033,0.106,0.027,0.157
					c-0.07,0.648,0.092,1.257,0.303,1.858c0.042,0.121,0.034,0.185-0.11,0.238c-0.109,0.04-0.188,0.16-0.31,0.271
					c-0.258-0.371-0.514-0.729-0.759-1.094c-0.387-0.576-0.782-1.15-0.931-1.847c-0.019-0.086-0.029-0.176-0.031-0.264
					c-0.02-0.71,0.006-1.424-0.068-2.127c-0.065-0.618,0.11-1.144,0.384-1.669c0.101-0.194,0.146-0.416,0.229-0.621
					c0.035-0.088,0.104-0.161,0.155-0.243c0.293-0.48,0.576-0.967,0.883-1.438c0.107-0.164,0.269-0.293,0.41-0.434
					c0.245-0.247,0.48-0.504,0.742-0.732c0.271-0.236,0.567-0.442,0.852-0.661C134.764,72.407,134.866,72.331,135.05,72.193z"/>
				<path fill="#FEFEFE" d="M158.48,68.32c-1.416,0.158-2.648-1.272-2.593-2.565c0.055-1.308,1.147-2.561,2.68-2.522
					c1.465,0.038,2.466,1.115,2.559,2.295C161.25,67.107,160.092,68.407,158.48,68.32z M157.989,65.776c0-0.038,0-0.077,0-0.115
					c-0.101-0.07-0.213-0.207-0.301-0.193c-0.105,0.016-0.247,0.15-0.269,0.255c-0.035,0.163,0.099,0.292,0.269,0.26
					C157.797,65.961,157.889,65.847,157.989,65.776z"/>
				<path fill="#FEFEFE" d="M137.711,77.636c1.332-0.154,2.521,1.174,2.468,2.465c-0.049,1.206-0.973,2.438-2.636,2.369
					c-1.259-0.052-2.299-1.164-2.291-2.38C135.262,78.901,136.324,77.456,137.711,77.636z M138.13,80.128
					c0.1-0.163,0.204-0.257,0.192-0.332c-0.013-0.079-0.136-0.141-0.211-0.21c-0.069,0.075-0.187,0.146-0.194,0.226
					C137.909,79.887,138.019,79.974,138.13,80.128z"/>
				<path fill="#FEFEFE" d="M146.547,79.058c-0.096,0.248-0.203,0.555-0.334,0.852c-0.093,0.21-0.221,0.405-0.329,0.609
					c-0.221,0.417-0.646,0.505-1.039,0.633c-0.195,0.063-0.409,0.067-0.611,0.115c-0.519,0.123-0.969-0.067-1.375-0.343
					c-0.699-0.476-1.081-1.149-1.053-2.009c0.035-1.054,0.741-1.934,1.772-2.177c0.838-0.197,1.634-0.018,2.276,0.638
					C146.299,77.829,146.433,78.393,146.547,79.058z M144.293,78.501c-0.105,0.16-0.211,0.25-0.201,0.326
					c0.01,0.08,0.132,0.202,0.204,0.201c0.072,0,0.192-0.124,0.201-0.204C144.506,78.749,144.399,78.659,144.293,78.501z"/>
				<path fill="#B7DFF2" d="M160.001,60.301c-0.021,0.02-0.067,0.098-0.126,0.11c-0.133,0.028-0.319,0.084-0.403,0.022
					c-0.614-0.459-1.323-0.626-2.053-0.792c-0.682-0.155-1.365-0.186-2.044-0.133c-0.671,0.052-1.323,0.264-1.894,0.638
					c-0.666,0.437-1.334,0.877-1.958,1.371c-0.44,0.349-0.806,0.791-1.207,1.19c-0.266,0.266-0.384,0.261-0.593-0.043
					c-0.037-0.054-0.037-0.163-0.009-0.228c0.332-0.78,0.756-1.499,1.413-2.054c0.619-0.523,1.292-0.963,2.046-1.267
					c0.67-0.271,1.343-0.533,2.019-0.79c0.748-0.285,1.517-0.31,2.291-0.128c0.741,0.175,1.442,0.44,1.96,1.036
					C159.701,59.528,159.992,59.811,160.001,60.301z"/>
				<path fill="#926135" d="M139.328,72.494c0.402,0.203,0.757,0.4,1.167,0.16c0.272-0.159,0.404-0.42,0.437-0.719
					c0.039-0.359,0.143-0.442,0.487-0.314c0.23,0.086,0.45,0.197,0.68,0.281c0.092,0.034,0.2,0.026,0.345,0.042
					c0.454,0.658,0.636,1.461,0.779,2.379c-0.425-0.134-0.795-0.265-1.174-0.364c-0.291-0.076-0.59-0.141-0.888-0.161
					c-0.398-0.027-0.799-0.005-1.199-0.007c-0.651-0.004-1.268,0.141-1.87,0.383c-0.229,0.092-0.477,0.139-0.711,0.22
					c-0.169,0.058-0.329,0.14-0.527,0.225c-0.073-0.586-0.136-1.087-0.199-1.589c-0.008-0.062-0.011-0.125-0.016-0.187
					c-0.017-0.231-0.149-0.465,0.101-0.677c0.07-0.059,0.024-0.255,0.035-0.45c0.119,0.281,0.225,0.506,0.31,0.738
					c0.291,0.798,1.279,1.067,1.929,0.51C139.154,72.844,139.228,72.648,139.328,72.494z"/>
				<path fill="#A7E7E2" d="M133.085,67.493c0.557-0.823,1.365-1.234,2.326-1.394c0.198-0.033,0.395-0.082,0.594-0.099
					c0.074-0.006,0.172,0.039,0.229,0.092c0.231,0.214,0.45,0.441,0.706,0.696c-0.299,0.055-0.566,0.104-0.833,0.154
					c-0.903,0.393-1.768,0.848-2.026,1.969C133.732,68.414,133.415,67.964,133.085,67.493z"/>
				<path fill="#F8C5A9" d="M144.351,74.842c0.243,0.283,0.489,0.536,0.694,0.819c0.203,0.28,0.366,0.589,0.557,0.902
					c0.05-0.057,0.099-0.112,0.147-0.168c0.877,0.964,2.197,4.35,1.149,6.895c-0.097-0.226-0.206-0.429-0.264-0.645
					c-0.025-0.091,0.064-0.209,0.089-0.318c0.031-0.132,0.049-0.266,0.031-0.413c-0.09,0.177-0.041,0.463-0.395,0.339
					c0.024-0.566,0.555-1.049,0.366-1.692c-0.056,0.263-0.04,0.58-0.188,0.772c-0.155,0.202-0.032,0.595-0.452,0.656
					c0.124-0.539,0.253-1.041,0.352-1.548c0.097-0.499,0.214-1.003,0.226-1.508c0.015-0.612-0.214-1.164-0.655-1.616
					c-0.307-0.315-0.587-0.644-0.811-1.037c-0.22-0.386-0.541-0.723-0.857-1.043C144.203,75.095,144.184,75.02,144.351,74.842z"/>
				<path fill="#D2EFC5" d="M154.933,78.659c-0.252,0.042-0.349-0.124-0.339-0.319c0.03-0.584,0.074-1.168,0.145-1.749
					c0.036-0.297,0.011-0.601-0.161-0.757c-0.085,0.102-0.154,0.225-0.259,0.299c-0.097,0.069-0.23,0.085-0.369,0.131
					c-0.012-0.183-0.02-0.311-0.028-0.446c-0.138,0.036-0.243,0.063-0.348,0.09c-0.013-0.03-0.026-0.061-0.039-0.091
					c0.468-0.258,0.935-0.517,1.405-0.772c0.258-0.14,0.516-0.281,0.78-0.409c0.187-0.091,0.381-0.171,0.578-0.237
					c0.144-0.048,0.258,0,0.238,0.18c-0.034,0.306-0.07,0.613-0.125,0.916c-0.01,0.055-0.121,0.132-0.183,0.13
					c-0.179-0.006-0.394,0.094-0.526-0.133c-0.006-0.011-0.162,0.034-0.213,0.086c-0.232,0.24-0.297,0.549-0.303,0.868
					c-0.009,0.478,0.009,0.956-0.01,1.433c-0.005,0.129-0.108,0.252-0.151,0.382C154.986,78.383,154.966,78.512,154.933,78.659z"/>
				<path fill="#DDD1C7" d="M148.847,70.163c0.042,0.245,0.068,0.433,0.107,0.619c0.17,0.822,0.343,1.643,0.513,2.466
					c0.018,0.086,0.035,0.179,0.02,0.262c-0.007,0.041-0.104,0.106-0.139,0.094c-0.671-0.221-1.231-0.58-1.42-1.311
					c-0.188-0.729-0.049-1.579,0.742-1.989C148.715,70.281,148.751,70.24,148.847,70.163z"/>
				<path fill="#E57094" d="M139.702,82.118c-0.062,0.313-0.111,0.603-0.177,0.888c-0.089,0.382-0.349,0.682-0.657,0.857
					c-0.206,0.118-0.59,0.12-0.796,0.003c-0.48-0.274-0.909-0.643-1.343-0.994c-0.131-0.106-0.209-0.276-0.354-0.476
					c0.129,0.022,0.187,0.021,0.236,0.041c0.873,0.365,1.71,0.296,2.539-0.157C139.308,82.194,139.464,81.947,139.702,82.118z"/>
				<path fill="#E57094" d="M145.092,76.552c-0.466,0-0.943-0.063-1.395,0.018c-0.438,0.079-0.85,0.307-1.288,0.476
					c0.211-0.667,0.414-1.307,0.828-1.864c0.264,0.189,0.514,0.27,0.804,0.098c0.046-0.027,0.19,0.04,0.242,0.103
					c0.295,0.36,0.576,0.731,0.861,1.098C145.126,76.505,145.109,76.529,145.092,76.552z"/>
				<path fill="#E57094" d="M143.273,81.345c1.128,0.322,2.091,0.075,2.87-0.816c0.026,0.015,0.053,0.03,0.079,0.044
					c-0.041,0.236-0.1,0.471-0.12,0.71c-0.034,0.397-0.277,0.603-0.554,0.867c-0.271,0.258-0.48,0.188-0.762,0.22
					c-0.623,0.07-0.918-0.373-1.305-0.687c-0.087-0.071-0.164-0.156-0.245-0.234C143.247,81.415,143.26,81.38,143.273,81.345z"/>
				<path fill="#E57094" d="M138.642,77.596c-0.605-0.268-1.231-0.225-1.821-0.051c-0.598,0.177-0.993,0.691-1.422,1.133
					c0.138-0.501,0.267-0.975,0.4-1.447c0.054-0.19,0.131-0.273,0.328-0.107c0.267,0.227,0.534,0.128,0.645-0.215
					c0.035-0.108,0.071-0.216,0.107-0.324c0.044-0.13,0.378-0.204,0.569-0.131c0.497,0.192,0.823,0.594,1.179,0.959
					c0.017,0.017,0.028,0.046,0.031,0.071C138.66,77.51,138.651,77.536,138.642,77.596z"/>
				<path fill="#DDD1C7" d="M161.255,72.161c-0.123-0.072-0.219-0.128-0.274-0.161c0-0.835-0.002-1.651,0.001-2.467
					c0.001-0.199,0.097-0.213,0.261-0.134c0.455,0.219,0.577,0.648,0.649,1.077c0.064,0.385,0.024,0.783-0.205,1.126
					C161.554,71.799,161.395,71.98,161.255,72.161z"/>
				<path fill="#B7DFF2" d="M162.089,71.263c0.359,0.335,0.739,0.687,1.113,1.045c0.038,0.036,0.068,0.13,0.048,0.163
					c-0.026,0.042-0.108,0.069-0.166,0.07c-0.423,0.006-0.845,0.003-1.332,0.003c0.165,0.433,0.317,0.833,0.492,1.29
					c-0.246,0.039-0.485,0.083-0.726,0.106c-0.019,0.002-0.095-0.154-0.071-0.2c0.207-0.404,0.129-0.805-0.012-1.196
					c-0.067-0.185-0.026-0.281,0.094-0.428C161.739,71.86,161.899,71.56,162.089,71.263z"/>
				<path fill="#C9E2C7" d="M133.026,67.678c0.27,0.388,0.509,0.802,0.818,1.156c0.244,0.28,0.288,0.586,0.292,0.999
					c-0.333-0.019-0.686-0.001-1.021-0.071c-0.25-0.053-0.517-0.614-0.464-0.899c0.075-0.399,0.182-0.792,0.275-1.188
					C132.96,67.676,132.993,67.677,133.026,67.678z"/>
				<path fill="#926135" d="M144.347,73.352c1.03,0.761,1.636,1.689,1.618,3.013c-0.14-0.186-0.241-0.348-0.369-0.483
					c-0.297-0.313-0.605-0.615-0.913-0.916c-0.309-0.302-0.347-0.667-0.292-1.071C144.414,73.733,144.367,73.562,144.347,73.352z"/>
				<path fill="#F8C5A9" d="M147.498,81.172c0.454,0.499,0.377,1.075,0.297,1.639c-0.031,0.217-0.128,0.436-0.24,0.627
					c-0.072,0.122-0.223,0.201-0.349,0.283c-0.012,0.008-0.145-0.102-0.139-0.147c0.03-0.251,0.083-0.498,0.132-0.746
					c0.079-0.402,0.162-0.802,0.238-1.204C147.463,81.478,147.476,81.329,147.498,81.172z"/>
				<path fill="#FEFEFE" d="M140.952,70.143c0.435,0.509,1.015,0.885,1.392,1.583c-0.186-0.024-0.303-0.022-0.409-0.056
					c-0.246-0.079-0.484-0.179-0.728-0.263c-0.124-0.043-0.244-0.088-0.258-0.239c-0.03-0.33-0.053-0.66-0.079-0.99
					C140.898,70.167,140.925,70.155,140.952,70.143z"/>
				<path fill="#E6E0B2" d="M153.518,73.93c-0.038,0.419-0.15,0.738-0.505,0.88c-0.123,0.049-0.306,0.017-0.434-0.04
					c-0.066-0.03-0.1-0.197-0.097-0.301c0.004-0.161,0.122-0.217,0.279-0.253c0.174-0.04,0.333-0.142,0.5-0.212
					C153.329,73.976,153.403,73.962,153.518,73.93z"/>
				<path fill="#E6E0B2" d="M152.223,74.398c0.208,0.393-0.113,0.964-0.414,1.046c-0.106,0.029-0.297-0.009-0.347-0.085
					c-0.057-0.086-0.052-0.3,0.016-0.367C151.7,74.776,151.962,74.601,152.223,74.398z"/>
				<path fill="#FEFEFE" d="M145.628,87.912c-0.15-0.256-0.309-0.483-0.415-0.733c-0.032-0.077,0.057-0.236,0.133-0.32
					c0.116-0.129,0.269-0.227,0.406-0.338C145.942,86.7,145.885,87.491,145.628,87.912z"/>
				<path fill="#E6E0B2" d="M155.835,74.375c-0.352,0.185-0.704,0.371-1.066,0.562c-0.014-0.355,0.411-0.919,0.717-0.915
					c0.13,0.002,0.258,0.158,0.388,0.244C155.861,74.302,155.848,74.339,155.835,74.375z"/>
				<path fill="#E6E0B2" d="M155.12,73.178c0.298-0.17,0.593-0.346,0.898-0.501c0.034-0.017,0.189,0.09,0.184,0.126
					c-0.045,0.327-0.284,0.53-0.556,0.633c-0.138,0.052-0.344-0.076-0.519-0.122C155.125,73.268,155.122,73.223,155.12,73.178z"/>
				<path fill="#E6E0B2" d="M156.002,74.361c0.236-0.385,0.4-0.742,0.834-0.789c0.093-0.01,0.238,0.059,0.289,0.137
					c0.087,0.135,0.021,0.259-0.141,0.314C156.682,74.126,156.382,74.23,156.002,74.361z"/>
				<path fill="#E6E0B2" d="M156.523,72.506c0.263-0.098,0.509-0.194,0.759-0.279c0.039-0.013,0.129,0.016,0.137,0.043
					c0.026,0.09,0.07,0.236,0.028,0.274c-0.14,0.129-0.304,0.273-0.48,0.311C156.772,72.897,156.581,72.789,156.523,72.506z"/>
				<path fill="#E6E0B2" d="M154.857,73.465c-0.161,0.197-0.274,0.315-0.363,0.45c-0.142,0.215-0.351,0.227-0.565,0.193
					c-0.059-0.009-0.122-0.106-0.146-0.175c-0.013-0.039,0.039-0.131,0.084-0.153c0.234-0.113,0.473-0.217,0.715-0.311
					C154.647,73.444,154.728,73.465,154.857,73.465z"/>
				<path fill="#E6E0B2" d="M157.592,73.829c0.176-0.413,0.386-0.583,0.687-0.518c0.079,0.017,0.199,0.138,0.192,0.199
					c-0.011,0.099-0.098,0.252-0.177,0.268C158.066,73.825,157.826,73.816,157.592,73.829z"/>
				<path fill="#E6E0B2" d="M159.528,73.766c-0.287,0-0.484,0-0.691,0c0.124-0.281,0.363-0.483,0.502-0.395
					C159.434,73.431,159.457,73.606,159.528,73.766z"/>
				<path fill="#FEFEFE" d="M136.987,71.305c-0.102,0.052-0.218,0.161-0.301,0.14c-0.078-0.02-0.136-0.171-0.175-0.275
					c-0.041-0.109-0.05-0.23-0.035-0.368c0.139,0.18,0.277,0.361,0.416,0.541C136.924,71.33,136.956,71.318,136.987,71.305z"/>
				<path fill="#DDD1C7" d="M160.497,63.821c0.012,0.032,0.024,0.064,0.036,0.095c-0.025-0.017-0.049-0.034-0.074-0.051
					C160.472,63.851,160.484,63.836,160.497,63.821z"/>
				<path d="M152.289,69.024c-1.634,0.022-3.109-1.352-3.063-3.005c0.043-1.573,1.324-2.941,3.167-2.891
					c1.623,0.044,2.951,1.306,2.946,2.997C155.334,67.692,154.011,69.016,152.289,69.024z M152.294,63.262
					c-0.165,0.025-0.332,0.045-0.496,0.077c-1.194,0.234-2.006,0.893-2.321,2.099c-0.256,0.981,0.015,1.846,0.699,2.543
					c0.669,0.681,1.504,0.997,2.491,0.833c0.685-0.114,1.318-0.312,1.777-0.867c0.553-0.669,0.835-1.404,0.697-2.307
					C154.93,64.261,153.623,63.281,152.294,63.262z"/>
				<path d="M155.992,67.926c0.127,0.364,0.331,0.721,0.365,1.093c0.061,0.661,0.042,1.333,0.009,1.998
					c-0.017,0.342-0.367,0.454-0.68,0.268c-0.444-0.264-0.587-0.697-0.664-1.168c-0.036-0.216-0.073-0.432-0.103-0.649
					c-0.008-0.055,0.01-0.113,0.016-0.17c0.025-0.003,0.05-0.005,0.076-0.008c0.04,0.25,0.078,0.5,0.12,0.75
					c0.076,0.447,0.167,0.893,0.611,1.133c0.124,0.067,0.283,0.068,0.432,0.101c0.266-0.578,0.17-1.163,0.129-1.717
					c-0.04-0.543-0.241-1.074-0.372-1.61C155.951,67.94,155.971,67.933,155.992,67.926z"/>
				<path d="M159.89,69.137c-0.632,0.582-1.339,0.867-2.157,0.448c-0.385-0.197-0.775-0.429-0.993-0.831
					c0.02-0.026,0.04-0.052,0.06-0.077c0.077,0.055,0.155,0.109,0.232,0.165c0.304,0.223,0.579,0.527,0.919,0.652
					c0.623,0.228,1.219,0.07,1.726-0.379c0.047-0.041,0.129-0.043,0.194-0.063C159.877,69.08,159.884,69.108,159.89,69.137z"/>
				<path d="M153.976,69.019c-1.18,1.11-2.255,1.42-3.609,0.196c0.125,0.015,0.194,0.005,0.242,0.032
					c0.273,0.153,0.532,0.336,0.814,0.469c0.577,0.27,1.138,0.158,1.667-0.148c0.249-0.145,0.476-0.328,0.716-0.489
					C153.854,69.047,153.919,69.039,153.976,69.019z"/>
				<path d="M152.53,62.28c0.908,0.003,1.645,0.343,2.262,0.967c0.083,0.084,0.144,0.189,0.216,0.284
					c-0.106-0.058-0.224-0.101-0.316-0.176c-0.443-0.356-0.865-0.745-1.468-0.811c-0.229-0.025-0.458-0.045-0.686-0.076
					c-0.058-0.008-0.113-0.047-0.169-0.071C152.422,62.358,152.476,62.319,152.53,62.28z"/>
				<path d="M156.278,63.342c-0.007-0.064-0.04-0.139-0.016-0.189c0.306-0.663,0.712-1.201,1.535-1.228
					c0.19-0.006,0.377-0.074,0.568-0.099c0.055-0.007,0.117,0.039,0.176,0.06c-0.048,0.033-0.091,0.083-0.144,0.095
					c-0.383,0.085-0.773,0.142-1.15,0.249c-0.389,0.11-0.548,0.469-0.736,0.785c-0.062,0.104-0.11,0.215-0.165,0.323
					C156.323,63.339,156.301,63.341,156.278,63.342z"/>
				<path d="M141.215,86.09c-0.012-0.055-0.05-0.122-0.032-0.165c0.258-0.624,0.502-1.258,1.019-1.728
					c0.249-0.226,0.506-0.445,0.767-0.657c0.235-0.19,0.912-0.143,1.109,0.084c0.317,0.366,0.53,0.793,0.722,1.23
					c-0.024,0.018-0.049,0.037-0.073,0.055c-0.064-0.079-0.138-0.151-0.189-0.237c-0.148-0.247-0.278-0.506-0.432-0.749
					c-0.226-0.356-0.775-0.47-1.101-0.195c-0.548,0.461-1.118,0.914-1.401,1.61c-0.101,0.249-0.208,0.496-0.312,0.744
					C141.266,86.085,141.241,86.088,141.215,86.09z"/>
				<path d="M140.106,78.155c-0.571-0.793-0.978-1.722-1.835-2.272c0.078-0.208,0.151-0.119,0.253-0.039
					c0.682,0.535,1.108,1.267,1.541,1.993c0.049,0.083,0.083,0.174,0.124,0.262C140.162,78.117,140.134,78.136,140.106,78.155z"/>
				<path d="M141.235,82.482c0.099,0.01,0.164-0.001,0.207,0.025c0.09,0.054,0.168,0.126,0.25,0.192
					c0.188,0.151,0.391,0.224,0.598,0.052c0.281-0.234,0.355-0.504,0.195-0.771c-0.138-0.23-0.314-0.437-0.49-0.677
					c0.144-0.018,0.24,0.085,0.325,0.185c0.084,0.099,0.151,0.214,0.221,0.325c0.213,0.336,0.158,0.764-0.132,1.037
					c-0.18,0.169-0.617,0.112-0.898-0.121C141.431,82.664,141.357,82.593,141.235,82.482z"/>
				<path d="M143.705,84.45c-0.642-0.15-0.882,0.323-1.192,0.731c-0.039-0.045-0.11-0.12-0.106-0.124
					c0.241-0.255,0.463-0.539,0.745-0.736C143.265,84.241,143.542,84.211,143.705,84.45z"/>
				<path d="M139.557,84.454c0.481-0.26,0.649-0.716,0.781-1.243C140.553,83.65,140.013,84.53,139.557,84.454z"/>
				<path d="M142.097,75.231c-0.319,0.426-0.418,0.925-0.496,1.432C141.567,76.12,141.63,75.609,142.097,75.231z"/>
				<path d="M152.027,78.381c-0.143,0.457-0.48,0.816-0.705,1.23c-0.236,0.436-0.527,0.842-0.797,1.267
					c0.21,0.296,0.423,0.595,0.636,0.894c-0.022,0.018-0.045,0.035-0.067,0.053c-0.179-0.204-0.35-0.417-0.541-0.61
					c-0.211-0.213-0.206-0.382-0.031-0.641c0.459-0.677,0.872-1.384,1.305-2.078c0.035-0.057,0.087-0.104,0.131-0.155
					C151.981,78.355,152.004,78.368,152.027,78.381z"/>
				<path d="M151.215,81.985c-0.013-0.041-0.026-0.083-0.039-0.124c0.017-0.007,0.034-0.014,0.05-0.021
					c0.02,0.045,0.041,0.089,0.061,0.134C151.263,81.978,151.239,81.982,151.215,81.985z"/>
				<path d="M151.336,81.997c0.019,0.045,0.037,0.091,0.056,0.136c-0.014,0.007-0.029,0.014-0.043,0.021
					c-0.024-0.04-0.048-0.08-0.071-0.121C151.297,82.021,151.316,82.009,151.336,81.997z"/>
				<path d="M138.587,69.384c0.317-0.286,0.205-0.613,0.066-0.942c0.048-0.005,0.096-0.01,0.145-0.014
					c0.062,0.2,0.178,0.402,0.168,0.598C138.959,69.17,138.867,69.381,138.587,69.384z"/>
				<path d="M139.852,68.455c0.238-0.24,0.305-0.005,0.383,0.069c0.228,0.215,0.21,0.407-0.082,0.709
					C140.177,68.908,140.331,68.563,139.852,68.455z"/>
				<path d="M136.096,69.598c0.07-0.042,0.14-0.083,0.225-0.134c-0.025-0.14-0.054-0.304-0.083-0.468
					c0.042-0.008,0.085-0.016,0.127-0.025c0.039,0.206,0.095,0.411,0.102,0.618c0.001,0.034-0.212,0.075-0.327,0.113
					C136.126,69.667,136.111,69.633,136.096,69.598z"/>
				<path d="M134.631,77.755c-0.029,0.492-0.118,0.991-0.07,1.475c0.048,0.482,0.233,0.951,0.364,1.451
					C134.44,80.366,134.211,78.319,134.631,77.755z"/>
				<path d="M136.164,83.966c0.121,0,0.205-0.026,0.237,0.004c0.367,0.341,0.817,0.496,1.294,0.599
					c0.054,0.012,0.101,0.06,0.151,0.091c-0.065,0.019-0.133,0.061-0.194,0.052C137.11,84.636,136.633,84.415,136.164,83.966z"/>
				<path d="M157.989,65.776c-0.1,0.072-0.192,0.185-0.301,0.206c-0.171,0.032-0.304-0.097-0.269-0.26
					c0.022-0.105,0.165-0.238,0.269-0.255c0.088-0.014,0.2,0.123,0.301,0.193C157.988,65.699,157.988,65.737,157.989,65.776z"/>
				<path d="M138.13,80.128c-0.111-0.154-0.22-0.241-0.214-0.316c0.007-0.081,0.125-0.151,0.194-0.226
					c0.075,0.069,0.198,0.131,0.211,0.21C138.333,79.871,138.23,79.965,138.13,80.128z"/>
				<path d="M144.293,78.501c0.106,0.158,0.213,0.248,0.204,0.323c-0.01,0.08-0.129,0.203-0.201,0.204
					c-0.072,0-0.193-0.121-0.204-0.201C144.082,78.751,144.188,78.66,144.293,78.501z"/>
				<path fill="#FEFEFE" d="M152.294,63.262c1.329,0.019,2.636,1,2.847,2.378c0.138,0.904-0.145,1.639-0.697,2.307
					c-0.458,0.554-1.091,0.753-1.777,0.867c-0.987,0.164-1.822-0.152-2.491-0.833c-0.684-0.697-0.956-1.562-0.699-2.543
					c0.315-1.205,1.127-1.864,2.321-2.099C151.962,63.306,152.128,63.287,152.294,63.262z M153.679,65.981
					c-0.184-0.123-0.298-0.258-0.386-0.243c-0.104,0.019-0.244,0.155-0.264,0.26c-0.031,0.163,0.105,0.29,0.275,0.254
					C153.414,66.23,153.503,66.114,153.679,65.981z"/>
				<path d="M153.679,65.981c-0.176,0.133-0.266,0.249-0.374,0.272c-0.17,0.036-0.306-0.091-0.275-0.254
					c0.02-0.105,0.159-0.242,0.264-0.26C153.381,65.722,153.495,65.858,153.679,65.981z"/>
			</g>
		</g>
		<path fill="#FFFFFF" d="M115.517,91.793c0,0.688-0.555,1.249-1.244,1.249H43.56c-0.688,0-1.246-0.562-1.246-1.249V57.367
			c0-0.688,0.56-1.25,1.246-1.25h70.713c0.689,0,1.244,0.562,1.244,1.25V91.793z"/>
	</g>
	<path fill="none" stroke="#13110C" stroke-width="6" d="M185.608,93.131c0-9.027-9.754-15.581-18.487-15.581
		c-8.732,0-18.476,6.668-18.476,15.581"/>
	<g>
		<path fill="#231F20" d="M28.247,86.558c0,0.682-0.549,1.243-1.236,1.243H10.199c-0.684,0-1.248-0.562-1.248-1.243V62.517
			c0-0.689,0.564-1.243,1.248-1.243h16.811c0.689,0,1.236,0.554,1.236,1.243V86.558z"/>
		<path fill="none" stroke="#13110C" stroke-width="6" d="M18.601,87.801c0,5.763,7.994,10.417,17.886,10.417"/>
	</g>
	<g>
		<path fill="#231F20" d="M212.143,86.558c0,0.682,0.565,1.243,1.241,1.243h16.812c0.677,0,1.242-0.562,1.242-1.243V62.517
			c0-0.689-0.565-1.243-1.242-1.243h-16.812c-0.676,0-1.241,0.554-1.241,1.243V86.558z"/>
		<path fill="none" stroke="#13110C" stroke-width="6" d="M221.794,87.801c0,5.763-7.994,10.417-17.883,10.417"/>
	</g>
	<path fill="#E30613" stroke="#DD1215" stroke-width="0.2339" d="M173.449,34.682c0,5.866,4.735,10.608,10.596,10.608
		c5.854,0,10.603-4.742,10.603-10.608c0-5.839-4.748-10.596-10.603-10.596C178.186,24.086,173.449,28.843,173.449,34.682z"/>
	<path fill="#E30613" stroke="#DD1215" stroke-width="0.2339" d="M44.56,34.682c0,5.866,4.744,10.608,10.584,10.608
		c5.863,0,10.613-4.742,10.613-10.608c0-5.839-4.75-10.596-10.613-10.596C49.304,24.086,44.56,28.843,44.56,34.682z"/>
</g>
<g>
	<path d="M74.525,24.132c0.953-0.173,2.46-0.303,3.989-0.303c2.183,0,3.587,0.324,4.643,1.06c0.878,0.562,1.402,1.427,1.402,2.573
		c0,1.406-1.078,2.638-2.857,3.2v0.043c1.604,0.346,3.484,1.492,3.484,3.654c0,1.254-0.575,2.206-1.43,2.919
		c-1.179,0.93-3.085,1.362-5.845,1.362c-1.505,0-2.659-0.086-3.389-0.173L74.525,24.132L74.525,24.132z M76.707,30.099h1.979
		c2.311,0,3.663-1.038,3.663-2.443c0-1.708-1.505-2.378-3.713-2.378c-1.003,0-1.58,0.065-1.932,0.13L76.707,30.099L76.707,30.099z
		 M76.707,37.083c0.427,0.065,1.054,0.087,1.831,0.087c2.258,0,4.34-0.714,4.34-2.833c0-1.989-1.981-2.811-4.364-2.811h-1.807
		V37.083L76.707,37.083z"/>
	<path d="M90.305,23.937v8.627c0,3.265,1.682,4.648,3.938,4.648c2.509,0,4.112-1.427,4.112-4.648v-8.627h2.207v8.498
		c0,4.476-2.732,6.313-6.396,6.313c-3.462,0-6.07-1.708-6.07-6.227v-8.584H90.305z"/>
	<path d="M104.053,36.218c0.979,0.519,2.408,0.952,3.913,0.952c2.232,0,3.537-1.017,3.537-2.487c0-1.362-0.903-2.141-3.188-2.897
		c-2.76-0.843-4.465-2.076-4.465-4.13c0-2.271,2.184-3.957,5.469-3.957c1.73,0,2.984,0.346,3.737,0.714l-0.603,1.535
		c-0.553-0.26-1.683-0.692-3.211-0.692c-2.31,0-3.188,1.189-3.188,2.184c0,1.362,1.028,2.032,3.361,2.811
		c2.858,0.951,4.312,2.14,4.312,4.281c0,2.249-1.932,4.195-5.92,4.195c-1.631,0-3.411-0.411-4.312-0.93L104.053,36.218z"/>
	<path d="M121.889,31.959v1.405h-6.194v-1.405H121.889z"/>
	<path d="M124.549,24.132c0.953-0.173,2.459-0.303,3.989-0.303c2.182,0,3.587,0.324,4.641,1.06c0.878,0.562,1.404,1.427,1.404,2.573
		c0,1.406-1.078,2.638-2.858,3.2v0.043c1.605,0.346,3.485,1.492,3.485,3.654c0,1.254-0.576,2.206-1.43,2.919
		c-1.18,0.93-3.086,1.362-5.846,1.362c-1.506,0-2.659-0.086-3.388-0.173L124.549,24.132L124.549,24.132z M126.733,30.099h1.981
		c2.309,0,3.663-1.038,3.663-2.443c0-1.708-1.506-2.378-3.713-2.378c-1.004,0-1.58,0.065-1.933,0.13L126.733,30.099L126.733,30.099z
		 M126.733,37.083c0.428,0.065,1.055,0.087,1.831,0.087c2.258,0,4.34-0.714,4.34-2.833c0-1.989-1.98-2.811-4.363-2.811h-1.808
		V37.083L126.733,37.083z"/>
	<path d="M149.962,38.034c-0.803,0.346-2.408,0.692-4.465,0.692c-4.768,0-8.355-2.595-8.355-7.373c0-4.562,3.587-7.654,8.829-7.654
		c2.107,0,3.438,0.389,4.015,0.649l-0.526,1.535c-0.827-0.346-2.007-0.605-3.411-0.605c-3.964,0-6.598,2.184-6.598,6.011
		c0,3.567,2.383,5.859,6.497,5.859c1.329,0,2.685-0.238,3.562-0.605L149.962,38.034z"/>
	<path d="M152.698,38.51V23.937h2.384l5.418,7.373c1.254,1.708,2.231,3.244,3.035,4.735l0.051-0.021
		c-0.201-1.946-0.251-3.719-0.251-5.989v-6.098h2.058V38.51h-2.207l-5.368-7.394c-1.181-1.622-2.31-3.287-3.16-4.865l-0.075,0.021
		c0.125,1.838,0.176,3.589,0.176,6.011v6.227L152.698,38.51L152.698,38.51z"/>
</g>
</svg>
